<?xml version="1.0" encoding="UTF-8" standalone="no"?><!DOCTYPE svg PUBLIC "-//W3C//DTD SVG 1.1//EN" "http://www.w3.org/Graphics/SVG/1.1/DTD/svg11.dtd"><svg width="100%" height="100%" viewBox="0 0 278 90" version="1.1" xmlns="http://www.w3.org/2000/svg" xmlns:xlink="http://www.w3.org/1999/xlink" xml:space="preserve" xmlns:serif="http://www.serif.com/" style="fill-rule:evenodd;clip-rule:evenodd;stroke-linejoin:round;stroke-miterlimit:2;"><g id="TEST-LOGO" serif:id="TEST LOGO"></g><rect id="V5.2-LOGO---21OCT-LOGO" serif:id="V5.2 LOGO - 21OCT LOGO" x="-0" y="0" width="277.963" height="89.238" style="fill:none;"/><g><g><path d="M76.081,75.29l4.353,-10.617l1.089,0l4.353,10.617l-1.125,0l-1.148,-2.821l-5.264,0l-1.14,2.821l-1.118,0Zm2.636,-3.761l4.501,0l-2.258,-5.545l-2.243,5.545Z" style="fill-rule:nonzero;"/><path d="M97.502,75.29l-0,-10.617l1.259,0l6.093,8.796l-0,-8.796l1,0l-0,10.617l-1.03,0l-6.323,-9.247l0,9.247l-0.999,0Z" style="fill-rule:nonzero;"/><path d="M117.479,75.29l4.354,-10.617l1.088,0l4.353,10.617l-1.125,0l-1.148,-2.821l-5.264,0l-1.14,2.821l-1.118,0Zm2.636,-3.761l4.501,0l-2.258,-5.545l-2.243,5.545Z" style="fill-rule:nonzero;"/><path d="M138.9,75.29l0,-10.617l1.029,0l0,9.633l5.383,-0l-0,0.984l-6.412,0Z" style="fill-rule:nonzero;"/><path d="M154.294,64.673l1.185,0l3.487,5.642l3.487,-5.642l1.155,0l-4.109,6.612l0,4.005l-1.051,0l-0,-4.005l-4.154,-6.612Z" style="fill-rule:nonzero;"/><path d="M174.627,65.628l-0,-0.955l8.159,0l-0,0.955l-3.561,0l-0,9.662l-1.015,0l0,-9.662l-3.583,0Z" style="fill-rule:nonzero;"/><rect x="194.871" y="64.673" width="1.029" height="10.617" style="fill-rule:nonzero;"/><path d="M208.332,71.966c-0.192,-0.607 -0.288,-1.269 -0.288,-1.984c-0,-0.716 0.097,-1.377 0.292,-1.985c0.195,-0.607 0.46,-1.125 0.796,-1.554c0.336,-0.43 0.729,-0.796 1.181,-1.1c0.452,-0.303 0.935,-0.528 1.451,-0.674c0.516,-0.145 1.048,-0.218 1.596,-0.218c0.7,0 1.325,0.081 1.873,0.244c0.548,0.163 1.123,0.405 1.725,0.726l-0,1.103c-1.185,-0.735 -2.384,-1.103 -3.598,-1.103c-0.548,-0 -1.072,0.095 -1.57,0.285c-0.499,0.19 -0.949,0.468 -1.351,0.833c-0.403,0.365 -0.723,0.845 -0.963,1.44c-0.239,0.595 -0.359,1.262 -0.359,2.003c0,0.74 0.12,1.408 0.359,2.002c0.24,0.595 0.56,1.075 0.963,1.441c0.402,0.365 0.852,0.644 1.351,0.836c0.498,0.193 1.022,0.289 1.57,0.289c1.229,-0 2.428,-0.37 3.598,-1.111l-0,1.111c-0.602,0.321 -1.177,0.563 -1.725,0.726c-0.548,0.162 -1.173,0.244 -1.873,0.244c-0.548,-0 -1.08,-0.073 -1.596,-0.219c-0.516,-0.145 -0.999,-0.371 -1.451,-0.677c-0.452,-0.306 -0.845,-0.674 -1.181,-1.103c-0.336,-0.43 -0.602,-0.948 -0.8,-1.555Z" style="fill-rule:nonzero;"/><path d="M228.569,67.361c-0,-0.839 0.322,-1.534 0.966,-2.084c0.644,-0.551 1.531,-0.826 2.662,-0.826c0.962,0 1.922,0.207 2.88,0.622l-0,1.059c-1.012,-0.494 -1.972,-0.741 -2.88,-0.741c-0.805,0 -1.436,0.178 -1.892,0.533c-0.457,0.356 -0.685,0.835 -0.685,1.437c0,0.488 0.148,0.887 0.444,1.195c0.296,0.309 0.704,0.522 1.222,0.641l1.651,0.348c0.888,0.192 1.558,0.538 2.01,1.036c0.452,0.499 0.678,1.123 0.678,1.874c-0,0.409 -0.076,0.796 -0.226,1.158c-0.151,0.363 -0.367,0.688 -0.648,0.974c-0.281,0.286 -0.647,0.513 -1.096,0.681c-0.449,0.168 -0.95,0.252 -1.503,0.252c-1.184,-0 -2.352,-0.299 -3.502,-0.896l0,-1.044c1.204,0.657 2.372,0.985 3.502,0.985c0.8,-0 1.403,-0.198 1.81,-0.593c0.408,-0.394 0.611,-0.9 0.611,-1.517c0,-0.474 -0.159,-0.883 -0.477,-1.226c-0.319,-0.343 -0.786,-0.581 -1.403,-0.714l-1.592,-0.348c-0.79,-0.168 -1.409,-0.484 -1.859,-0.948c-0.449,-0.464 -0.673,-1.083 -0.673,-1.858Z" style="fill-rule:nonzero;"/></g><g><path d="M76.076,27.623c0,-3.749 1.368,-6.807 4.104,-9.174c2.737,-2.367 6.547,-3.55 11.433,-3.55c4.204,-0 8.18,0.833 11.929,2.499l0,8.606c-4.487,-2.064 -8.559,-3.096 -12.213,-3.096c-1.932,0 -3.442,0.389 -4.531,1.165c-1.088,0.776 -1.633,1.789 -1.633,3.039c0,0.966 0.303,1.785 0.909,2.457c0.606,0.672 1.487,1.132 2.642,1.378l6.447,1.391c7.253,1.591 10.879,5.681 10.879,12.271c-0,3.692 -1.321,6.741 -3.962,9.146c-2.642,2.405 -6.244,3.607 -10.808,3.607c-5.378,0 -10.348,-1.183 -14.912,-3.55l0,-8.663c1.799,1.098 4.128,2.059 6.987,2.883c2.86,0.823 5.501,1.235 7.925,1.235c1.875,0 3.271,-0.388 4.19,-1.164c0.918,-0.777 1.377,-1.762 1.377,-2.954c0,-1.042 -0.355,-1.946 -1.065,-2.713c-0.71,-0.767 -1.747,-1.283 -3.11,-1.548l-5.653,-1.221c-7.29,-1.572 -10.935,-5.586 -10.935,-12.044Z" style="fill-rule:nonzero;"/><path d="M110.856,17.398c-0,-1.477 0.483,-2.679 1.448,-3.607c0.966,-0.928 2.187,-1.392 3.664,-1.392c1.477,0 2.699,0.464 3.665,1.392c0.965,0.928 1.448,2.13 1.448,3.607c0,1.458 -0.487,2.656 -1.463,3.593c-0.975,0.938 -2.191,1.406 -3.65,1.406c-1.458,0 -2.674,-0.468 -3.649,-1.406c-0.976,-0.937 -1.463,-2.135 -1.463,-3.593Zm1.108,39.084l-0,-28.432l8.123,-0l0,28.432l-8.123,-0Z" style="fill-rule:nonzero;"/><path d="M124.759,34.781l-0,-6.731l5.113,-0l-0,-7.755l7.839,-2.897l-0,10.652l6.362,-0l0,6.731l-6.362,0l-0,11.418c-0,2.557 1.344,3.835 4.033,3.835c0.606,-0 1.383,-0.123 2.329,-0.369l0,7.044c-1.477,0.435 -3.105,0.653 -4.885,0.653c-1.326,0 -2.552,-0.175 -3.678,-0.525c-1.127,-0.351 -2.14,-0.886 -3.04,-1.605c-0.899,-0.72 -1.604,-1.685 -2.116,-2.897c-0.511,-1.212 -0.767,-2.623 -0.767,-4.232l0,-13.322l-4.828,0Z" style="fill-rule:nonzero;"/><path d="M148.234,42.053c-0,-2.917 0.648,-5.52 1.946,-7.811c1.297,-2.292 3.053,-4.053 5.268,-5.284c2.216,-1.23 4.678,-1.846 7.385,-1.846c4.412,0 7.873,1.387 10.382,4.161c2.509,2.774 3.763,6.405 3.763,10.893c0,0.985 -0.037,1.78 -0.113,2.386l-20.138,0c0.075,1.856 0.842,3.328 2.3,4.417c1.458,1.089 3.134,1.633 5.028,1.633c3.673,0 7.281,-1.165 10.822,-3.494l-0,7.045c-1.553,0.984 -3.238,1.765 -5.056,2.343c-1.818,0.577 -4.024,0.866 -6.618,0.866c-2.784,0 -5.293,-0.582 -7.527,-1.747c-2.235,-1.164 -4.034,-2.921 -5.397,-5.269c-1.363,-2.348 -2.045,-5.112 -2.045,-8.293Zm8.691,-2.954l11.845,-0c-0.095,-1.459 -0.649,-2.699 -1.662,-3.721c-1.013,-1.023 -2.438,-1.534 -4.275,-1.534c-1.685,-0 -3.067,0.53 -4.147,1.59c-1.079,1.061 -1.666,2.282 -1.761,3.665Z" style="fill-rule:nonzero;"/><path d="M183.355,56.482l-0,-40.731l8.606,-0l-0,32.408l18.86,0l-0,8.323l-27.466,-0Z" style="fill-rule:nonzero;"/><path d="M214.3,47.648c-0,-2.784 1.013,-4.985 3.039,-6.604c2.026,-1.619 4.545,-2.428 7.555,-2.428c2.538,-0 4.895,0.587 7.073,1.761l-0,-1.989c-0,-1.192 -0.445,-2.177 -1.335,-2.954c-0.89,-0.776 -2.244,-1.164 -4.062,-1.164c-3.579,-0 -7.129,1.117 -10.651,3.352l-0,-7.953c3.541,-1.705 7.347,-2.557 11.418,-2.557c3.995,0 7.125,0.985 9.387,2.954c2.263,1.969 3.395,4.393 3.395,7.272l-0,19.144l-7.556,-0l0,-1.875c-0.928,0.795 -2.092,1.453 -3.493,1.974c-1.402,0.521 -2.935,0.781 -4.602,0.781c-3.011,0 -5.458,-0.857 -7.342,-2.57c-1.884,-1.714 -2.826,-4.095 -2.826,-7.144Zm7.953,-0.227c-0,1.155 0.431,2.064 1.292,2.727c0.862,0.662 1.946,0.994 3.252,0.994c1.042,-0 2.017,-0.204 2.926,-0.611c0.909,-0.407 1.657,-0.885 2.244,-1.434l-0,-3.437c-0.549,-0.455 -1.288,-0.848 -2.216,-1.179c-0.927,-0.331 -1.912,-0.497 -2.954,-0.497c-1.306,-0 -2.39,0.303 -3.252,0.909c-0.861,0.606 -1.292,1.448 -1.292,2.528Z" style="fill-rule:nonzero;"/><path d="M246.921,56.482l-0,-42.18l8.152,0l-0,15.764c2.139,-1.969 4.79,-2.954 7.953,-2.954c2.67,0 5.032,0.687 7.086,2.059c2.055,1.373 3.617,3.196 4.687,5.468c1.07,2.272 1.605,4.781 1.605,7.527c-0,2.784 -0.535,5.321 -1.605,7.612c-1.07,2.292 -2.632,4.128 -4.687,5.511c-2.054,1.382 -4.416,2.073 -7.086,2.073c-2.954,0 -5.605,-1.013 -7.953,-3.039l-0,2.159l-8.152,-0Zm8.152,-9.885c1.647,2.045 3.664,3.068 6.05,3.068c2.026,-0 3.673,-0.673 4.942,-2.017c1.269,-1.344 1.903,-3.172 1.903,-5.482c-0,-2.234 -0.639,-4.033 -1.917,-5.397c-1.278,-1.363 -2.921,-2.045 -4.928,-2.045c-2.367,0 -4.384,1.032 -6.05,3.096l-0,8.777Z" style="fill-rule:nonzero;"/></g></g><g><path d="M31.385,17.959c-14.791,-0 -26.823,12.032 -26.823,26.823c0,14.79 12.033,26.823 26.823,26.824c14.79,-0.001 26.823,-12.034 26.823,-26.824c-0,-14.79 -12.033,-26.823 -26.823,-26.823Zm-0,56.833c-8.016,-0.001 -15.552,-3.122 -21.22,-8.79c-5.668,-5.668 -8.79,-13.205 -8.79,-21.22c0,-8.016 3.122,-15.553 8.789,-21.22c5.669,-5.669 13.205,-8.79 21.221,-8.79c8.016,-0 15.552,3.121 21.221,8.79c5.667,5.667 8.789,13.204 8.789,21.22c-0,8.015 -3.122,15.552 -8.79,21.22c-5.668,5.668 -13.204,8.789 -21.22,8.79Z" style="fill:url(#_Radial1);"/><path d="M31.385,17.747c-14.907,-0.001 -27.035,12.127 -27.035,27.035c-0,14.907 12.128,27.035 27.035,27.036c14.907,-0.001 27.035,-12.129 27.035,-27.036c0,-14.908 -12.128,-27.036 -27.035,-27.035Zm-0,57.255c-8.072,0 -15.661,-3.143 -21.369,-8.851c-5.708,-5.708 -8.851,-13.296 -8.851,-21.369c-0,-8.072 3.143,-15.661 8.851,-21.369c5.708,-5.708 13.297,-8.851 21.369,-8.851c8.072,-0 15.661,3.143 21.369,8.851c5.708,5.708 8.851,13.297 8.851,21.369c-0,8.072 -3.143,15.661 -8.851,21.369c-5.709,5.708 -13.297,8.851 -21.369,8.851Z" style="fill:url(#_Radial2);"/><path d="M31.384,17.534c-15.023,0 -27.247,12.224 -27.247,27.247c-0,15.026 12.224,27.249 27.248,27.249c15.024,0 27.248,-12.223 27.247,-27.248c0.001,-15.024 -12.223,-27.248 -27.248,-27.248Zm0,57.678c-8.128,0 -15.769,-3.165 -21.517,-8.912c-5.748,-5.748 -8.913,-13.39 -8.913,-21.518c0.001,-8.129 3.166,-15.77 8.913,-21.517c5.748,-5.748 13.39,-8.914 21.518,-8.914c8.128,0 15.77,3.166 21.518,8.914c5.747,5.747 8.912,13.388 8.912,21.516c0,8.129 -3.165,15.771 -8.912,21.519c-5.748,5.747 -13.391,8.912 -21.519,8.912Z" style="fill:url(#_Radial3);"/><path d="M31.357,13.891c17.042,0 30.877,13.836 30.877,30.877c0,17.042 -13.835,30.877 -30.877,30.877c-17.041,0 -30.877,-13.835 -30.877,-30.877c-0,-17.041 13.836,-30.877 30.877,-30.877Z" style="fill:url(#_Linear4);"/><clipPath id="_clip5"><path d="M31.357,13.891c17.042,0 30.877,13.836 30.877,30.877c0,17.042 -13.835,30.877 -30.877,30.877c-17.041,0 -30.877,-13.835 -30.877,-30.877c-0,-17.041 13.836,-30.877 30.877,-30.877Z"/></clipPath><g clip-path="url(#_clip5)"><g><path d="M37.404,36.333c4.555,3.062 5.767,9.237 2.705,13.793c-3.062,4.555 -9.237,5.766 -13.792,2.704c-4.556,-3.062 -5.767,-9.236 -2.705,-13.792c3.061,-4.556 9.237,-5.767 13.792,-2.705Zm-30.257,-2.685c0.039,0.593 1.615,2.236 3.699,3.691c-0.716,2.071 -1.109,4.208 -1.194,6.344c-2.196,0.342 -4.476,0.932 -4.933,1.932c-0.927,2.032 0.943,7.809 1.654,8.432c0.455,0.4 2.807,0.441 5.362,-0.029c0.897,1.916 2.072,3.719 3.516,5.34c-1.316,1.797 -2.518,3.835 -2.132,4.868c0.781,2.092 6.187,4.856 7.131,4.794c0.592,-0.039 2.226,-1.605 3.678,-3.678c2.08,0.796 4.234,1.262 6.395,1.41c0.347,2.12 0.93,4.255 1.895,4.696c2.031,0.927 7.808,-0.943 8.432,-1.654c0.371,-0.423 0.434,-2.487 0.062,-4.829c2.083,-0.902 4.041,-2.125 5.792,-3.661c1.65,1.151 3.395,2.091 4.326,1.744c2.091,-0.781 4.854,-6.188 4.792,-7.131c-0.035,-0.532 -1.304,-1.907 -3.066,-3.233c0.887,-2.26 1.384,-4.612 1.502,-6.965c1.869,-0.357 3.6,-0.913 3.992,-1.77c0.927,-2.031 -0.942,-7.808 -1.653,-8.432c-0.392,-0.343 -2.186,-0.422 -4.306,-0.138c-0.984,-2.168 -2.326,-4.192 -4.003,-5.98c1.066,-1.57 1.891,-3.18 1.563,-4.061c-0.781,-2.092 -6.188,-4.855 -7.132,-4.793c-0.533,0.035 -1.913,1.31 -3.243,3.08c-2.25,-0.799 -4.582,-1.209 -6.907,-1.26c-0.354,-1.965 -0.921,-3.838 -1.818,-4.248c-2.031,-0.927 -7.808,0.942 -8.431,1.653c-0.373,0.426 -0.435,2.508 -0.057,4.865c-1.991,0.975 -3.852,2.257 -5.506,3.83c-1.733,-1.24 -3.632,-2.316 -4.616,-1.948c-2.093,0.78 -4.856,6.187 -4.794,7.131Z" style="fill:#dfdfdf;fill-opacity:0.5;fill-rule:nonzero;"/></g><g id="Blast"><g id="Stars"><path d="M16.116,21.353c0.353,0.001 0.353,-0.548 -0,-0.548c-0.354,0 -0.354,0.549 -0,0.548Z" style="fill:#fff;fill-rule:nonzero;"/><path d="M5.224,35.163c0.354,0 0.354,-0.548 -0,-0.548c-0.353,0 -0.353,0.548 -0,0.548Z" style="fill:#fff;fill-rule:nonzero;"/><path d="M8.214,38.723c0.353,-0 0.353,-0.548 0,-0.548c-0.353,-0.001 -0.353,0.547 0,0.548Z" style="fill:#fff;fill-rule:nonzero;"/><path d="M13.909,31.248c0.354,-0 0.354,-0.548 0,-0.548c-0.353,-0 -0.353,0.548 0,0.548Z" style="fill:#fff;fill-rule:nonzero;"/><path d="M7.858,46.766c0.354,0 0.354,-0.548 -0,-0.548c-0.353,0 -0.353,0.548 -0,0.548Z" style="fill:#fff;fill-rule:nonzero;"/><path d="M9.211,31.889c0.353,-0.001 0.353,-0.549 -0,-0.548c-0.354,-0.001 -0.354,0.547 -0,0.548Z" style="fill:#fff;fill-rule:nonzero;"/><path d="M22.309,26.905c0.353,0.001 0.353,-0.547 -0,-0.548c-0.353,0 -0.353,0.548 -0,0.548Z" style="fill:#fff;fill-rule:nonzero;"/><path d="M3.231,40.858c0.354,-0 0.353,-0.548 0,-0.548c-0.353,-0 -0.353,0.548 0,0.548Z" style="fill:#fff;fill-rule:nonzero;"/><path d="M22.736,18.506c0.353,-0.001 0.353,-0.549 -0,-0.548c-0.354,-0.001 -0.354,0.547 -0,0.548Z" style="fill:#fff;fill-rule:nonzero;"/><path d="M26.366,22.065c0.354,-0 0.354,-0.548 0,-0.548c-0.353,-0 -0.353,0.548 0,0.548Z" style="fill:#fff;fill-rule:nonzero;"/><path d="M16.258,26.479c0.354,-0.001 0.354,-0.549 0,-0.548c-0.353,-0 -0.353,0.547 0,0.548Z" style="fill:#fff;fill-rule:nonzero;"/><path d="M38.753,19.716c0.353,-0 0.353,-0.548 0,-0.548c-0.354,-0 -0.354,0.548 0,0.548Z" style="fill:#fff;fill-rule:nonzero;"/><path d="M34.98,24.342c0.353,0.001 0.353,-0.547 -0,-0.548c-0.354,0.001 -0.354,0.549 -0,0.548Z" style="fill:#fff;fill-rule:nonzero;"/><path d="M34.482,19.36c0.353,0 0.353,-0.548 0,-0.548c-0.353,-0.001 -0.353,0.547 0,0.548Z" style="fill:#fff;fill-rule:nonzero;"/><path d="M51.78,33.811c0.353,-0 0.353,-0.548 0,-0.548c-0.353,-0 -0.353,0.548 0,0.548Z" style="fill:#fff;fill-rule:nonzero;"/><path d="M55.553,32.957c0.353,-0.001 0.353,-0.549 -0,-0.548c-0.353,-0 -0.353,0.548 -0,0.548Z" style="fill:#fff;fill-rule:nonzero;"/><path d="M44.519,26.55c0.353,-0 0.353,-0.548 0,-0.548c-0.353,-0.001 -0.353,0.547 0,0.548Z" style="fill:#fff;fill-rule:nonzero;"/><path d="M45.729,23.204c0.354,-0 0.354,-0.548 -0,-0.548c-0.353,-0 -0.353,0.548 -0,0.548Z" style="fill:#fff;fill-rule:nonzero;"/><path d="M47.722,31.889c0.354,-0.001 0.354,-0.549 0,-0.548c-0.353,-0.001 -0.353,0.547 0,0.548Z" style="fill:#fff;fill-rule:nonzero;"/><path d="M40.461,23.489c0.354,-0.001 0.354,-0.549 0,-0.548c-0.353,-0.001 -0.353,0.547 0,0.548Z" style="fill:#fff;fill-rule:nonzero;"/><path d="M52.492,50.539c0.353,0 0.353,-0.547 -0,-0.548c-0.354,0.001 -0.354,0.549 -0,0.548Z" style="fill:#fff;fill-rule:nonzero;"/><path d="M58.258,42.567c0.353,-0.001 0.353,-0.549 -0,-0.548c-0.354,-0.001 -0.354,0.547 -0,0.548Z" style="fill:#fff;fill-rule:nonzero;"/><path d="M54.058,40.075c0.353,-0 0.353,-0.548 -0,-0.548c-0.354,-0 -0.354,0.548 -0,0.548Z" style="fill:#fff;fill-rule:nonzero;"/><path d="M56.977,38.224c0.353,0 0.353,-0.548 -0.001,-0.547c-0.353,-0.001 -0.353,0.547 0.001,0.547Z" style="fill:#fff;fill-rule:nonzero;"/><path d="M54.556,48.048c0.353,-0 0.353,-0.548 0,-0.548c-0.353,-0.001 -0.353,0.547 0,0.548Z" style="fill:#fff;fill-rule:nonzero;"/><path d="M48.79,54.454c0.354,0.001 0.354,-0.547 -0,-0.547c-0.353,-0 -0.353,0.548 0,0.547Z" style="fill:#fff;fill-rule:nonzero;"/><path d="M11.346,36.943c0.354,-0 0.354,-0.548 0,-0.548c-0.353,-0 -0.353,0.548 0,0.548Z" style="fill:#fff;fill-rule:nonzero;"/><path d="M8.641,25.625c0.353,-0.001 0.353,-0.549 -0,-0.548c-0.353,-0 -0.354,0.547 -0,0.548Z" style="fill:#fff;fill-rule:nonzero;"/><path d="M54.627,29.397c0.353,0 0.353,-0.548 0,-0.548c-0.353,-0 -0.353,0.548 0,0.548Z" style="fill:#fff;fill-rule:nonzero;"/><path d="M51.139,25.197c0.354,0 0.354,-0.548 -0,-0.548c-0.353,0 -0.353,0.548 -0,0.548Z" style="fill:#fff;fill-rule:nonzero;"/><path d="M44.235,18.079c0.353,-0 0.353,-0.548 -0,-0.548c-0.354,-0 -0.354,0.548 -0,0.548Z" style="fill:#fff;fill-rule:nonzero;"/><path d="M29.641,15.302c0.354,0 0.354,-0.548 -0,-0.548c-0.353,0 -0.353,0.548 -0,0.548Z" style="fill:#fff;fill-rule:nonzero;"/><path d="M13.713,51.375c0.354,0.001 0.354,-0.547 0,-0.548c-0.353,0.001 -0.353,0.549 0,0.548Z" style="fill:#fff;fill-rule:nonzero;"/><path d="M11.578,44.755c0.353,0.001 0.353,-0.547 -0,-0.548c-0.354,0.001 -0.354,0.549 -0,0.548Z" style="fill:#fff;fill-rule:nonzero;"/><path d="M49.805,45.449c0.353,0 0.353,-0.548 -0,-0.548c-0.354,0 -0.354,0.548 -0,0.548Z" style="fill:#fff;fill-rule:nonzero;"/><path d="M20.234,39.809c0.218,0.217 0.555,-0.12 0.338,-0.338c-0.217,-0.216 -0.555,0.121 -0.338,0.338Z" style="fill:#fff;fill-rule:nonzero;"/><path d="M17.961,35.335c0.217,0.217 0.554,-0.119 0.336,-0.337c-0.216,-0.217 -0.553,0.12 -0.336,0.337Z" style="fill:#fff;fill-rule:nonzero;"/><path d="M27.276,40.122c0.217,0.217 0.554,-0.119 0.336,-0.337c-0.217,-0.217 -0.554,0.119 -0.336,0.337Z" style="fill:#fff;fill-rule:nonzero;"/><path d="M32.283,57.232c0.218,0.217 0.554,-0.119 0.337,-0.337c-0.217,-0.217 -0.554,0.12 -0.337,0.337Z" style="fill:#fff;fill-rule:nonzero;"/><path d="M40.353,31.964c0.217,0.218 0.555,-0.119 0.337,-0.337c-0.217,-0.217 -0.555,0.12 -0.337,0.337Z" style="fill:#fff;fill-rule:nonzero;"/><path d="M43.538,30.536c0.218,0.217 0.555,-0.12 0.338,-0.338c-0.218,-0.217 -0.555,0.12 -0.338,0.338Z" style="fill:#fff;fill-rule:nonzero;"/><path d="M44.321,49.785c0.218,0.218 0.554,-0.119 0.337,-0.336c-0.217,-0.217 -0.554,0.12 -0.337,0.336Z" style="fill:#fff;fill-rule:nonzero;"/><path d="M17.182,41.385c0.217,0.217 0.555,-0.12 0.337,-0.338c-0.216,-0.217 -0.554,0.121 -0.337,0.338Z" style="fill:#fff;fill-rule:nonzero;"/><path d="M18.272,46.669c0.217,0.217 0.554,-0.119 0.336,-0.337c-0.217,-0.217 -0.554,0.119 -0.336,0.337Z" style="fill:#fff;fill-rule:nonzero;"/><path d="M36.519,30.256c0.217,0.217 0.554,-0.12 0.336,-0.337c-0.217,-0.218 -0.554,0.119 -0.336,0.337Z" style="fill:#fff;fill-rule:nonzero;"/><path d="M27.864,32.122c0.217,0.218 0.554,-0.119 0.336,-0.336c-0.217,-0.218 -0.554,0.119 -0.336,0.336Z" style="fill:#fff;fill-rule:nonzero;"/><path d="M26.167,34.498c0.217,0.218 0.554,-0.119 0.336,-0.337c-0.217,-0.217 -0.554,0.12 -0.336,0.337Z" style="fill:#fff;fill-rule:nonzero;"/><path d="M22.772,31.104c0.218,0.218 0.555,-0.119 0.337,-0.337c-0.217,-0.217 -0.554,0.12 -0.337,0.337Z" style="fill:#fff;fill-rule:nonzero;"/><path d="M39.743,41.286c0.218,0.218 0.554,-0.119 0.337,-0.336c-0.218,-0.218 -0.554,0.119 -0.337,0.336Z" style="fill:#fff;fill-rule:nonzero;"/><path d="M41.27,38.062c0.218,0.218 0.555,-0.119 0.337,-0.337c-0.217,-0.217 -0.554,0.12 -0.337,0.337Z" style="fill:#fff;fill-rule:nonzero;"/><path d="M48.059,38.062c0.217,0.218 0.554,-0.119 0.336,-0.337c-0.217,-0.217 -0.554,0.12 -0.336,0.337Z" style="fill:#fff;fill-rule:nonzero;"/></g><path d="M-0.86,58.161c18.295,7.119 29.379,6.545 30.681,-13.393c0.154,-2.359 1.171,-30.293 1.56,-30.289c0.413,0.003 1.439,27.935 1.514,30.289c0.654,20.466 12.335,20.043 31.331,10.556c3.32,-1.659 3.918,56.291 -64.81,15.356" style="fill:#b27eff;fill-rule:nonzero;"/><clipPath id="_clip6"><path d="M-0.86,58.161c18.295,7.119 29.379,6.545 30.681,-13.393c0.154,-2.359 1.171,-30.293 1.56,-30.289c0.413,0.003 1.439,27.935 1.514,30.289c0.654,20.466 12.335,20.043 31.331,10.556c3.32,-1.659 3.918,56.291 -64.81,15.356" clip-rule="nonzero"/></clipPath><g clip-path="url(#_clip6)"><g><path d="M38.317,72.14c0,-0 0.002,-0.044 0.005,-0.127c0.001,-0.041 0.003,-0.092 0.006,-0.151c0.002,-0.06 0.013,-0.129 0.022,-0.206c0.005,-0.038 0.01,-0.079 0.016,-0.122c0.008,-0.042 0.017,-0.085 0.026,-0.131c0.018,-0.092 0.038,-0.192 0.071,-0.295c0.015,-0.052 0.031,-0.106 0.047,-0.161c0.018,-0.055 0.039,-0.11 0.06,-0.168c0.039,-0.116 0.094,-0.231 0.15,-0.353c0.026,-0.062 0.06,-0.122 0.093,-0.183c0.034,-0.061 0.066,-0.125 0.103,-0.187c0.078,-0.122 0.155,-0.25 0.249,-0.372c0.088,-0.127 0.192,-0.246 0.296,-0.371c0.053,-0.061 0.111,-0.119 0.168,-0.178c0.056,-0.061 0.117,-0.118 0.18,-0.175c0.245,-0.23 0.52,-0.445 0.822,-0.63c0.148,-0.098 0.307,-0.178 0.465,-0.263c0.162,-0.076 0.324,-0.155 0.492,-0.218c0.336,-0.128 0.683,-0.228 1.031,-0.289c0.173,-0.039 0.348,-0.052 0.52,-0.074c0.086,-0.005 0.172,-0.01 0.257,-0.014c0.043,-0.003 0.085,-0.005 0.128,-0.007c0.042,-0 0.084,0 0.126,0.001c0.084,0 0.167,0.001 0.25,0.001c0.082,0.007 0.163,0.012 0.244,0.018c0.161,0.009 0.317,0.038 0.469,0.058c0.151,0.023 0.297,0.058 0.438,0.087c0.139,0.036 0.272,0.076 0.401,0.112c0.126,0.042 0.246,0.085 0.361,0.126c0.113,0.041 0.217,0.091 0.317,0.133c0.049,0.021 0.098,0.041 0.143,0.062c0.045,0.023 0.088,0.045 0.13,0.067c0.083,0.042 0.159,0.081 0.227,0.117c0.135,0.075 0.237,0.141 0.308,0.183c0.07,0.043 0.108,0.066 0.108,0.066c-0,-0 -0.16,-0.073 -0.44,-0.2c-0.071,-0.029 -0.15,-0.06 -0.235,-0.094c-0.043,-0.017 -0.088,-0.035 -0.134,-0.054c-0.046,-0.017 -0.095,-0.033 -0.146,-0.05c-0.101,-0.033 -0.206,-0.074 -0.321,-0.105c-0.115,-0.032 -0.235,-0.065 -0.361,-0.1c-0.127,-0.027 -0.259,-0.057 -0.396,-0.084c-0.139,-0.019 -0.281,-0.049 -0.429,-0.064c-0.148,-0.012 -0.299,-0.034 -0.455,-0.035c-0.077,-0.003 -0.156,-0.006 -0.235,-0.009c-0.079,0.002 -0.159,0.004 -0.24,0.005c-0.04,0.001 -0.081,0.002 -0.121,0.003c-0.041,0.003 -0.082,0.006 -0.122,0.01c-0.082,0.007 -0.164,0.014 -0.247,0.02c-0.163,0.027 -0.331,0.043 -0.496,0.08c-0.166,0.029 -0.33,0.075 -0.495,0.118c-0.083,0.024 -0.163,0.053 -0.245,0.079c-0.082,0.025 -0.162,0.056 -0.241,0.088c-0.162,0.058 -0.316,0.132 -0.472,0.203c-0.151,0.08 -0.304,0.155 -0.446,0.247c-0.146,0.085 -0.281,0.184 -0.418,0.277c-0.131,0.101 -0.263,0.199 -0.381,0.307c-0.241,0.213 -0.461,0.437 -0.643,0.67c-0.097,0.112 -0.175,0.233 -0.257,0.346c-0.04,0.057 -0.074,0.116 -0.11,0.173c-0.036,0.057 -0.072,0.113 -0.101,0.171c-0.062,0.113 -0.121,0.223 -0.168,0.332c-0.024,0.054 -0.049,0.105 -0.071,0.157c-0.02,0.053 -0.039,0.104 -0.058,0.153c-0.04,0.098 -0.067,0.194 -0.094,0.282c-0.013,0.043 -0.026,0.086 -0.038,0.126c-0.009,0.041 -0.018,0.08 -0.026,0.117c-0.016,0.075 -0.034,0.141 -0.044,0.2c-0.009,0.059 -0.017,0.109 -0.023,0.15c-0.013,0.081 -0.02,0.125 -0.02,0.125Z" style="fill:#d0b0ff;fill-rule:nonzero;"/><path d="M10.278,67.442c0,-0 0.044,-0.046 0.126,-0.133c0.042,-0.043 0.091,-0.098 0.153,-0.158c0.066,-0.058 0.141,-0.125 0.225,-0.199c0.173,-0.143 0.391,-0.309 0.66,-0.473c0.133,-0.084 0.281,-0.161 0.436,-0.247c0.08,-0.038 0.162,-0.076 0.246,-0.116c0.042,-0.019 0.085,-0.039 0.128,-0.059c0.044,-0.018 0.088,-0.036 0.133,-0.054c0.358,-0.153 0.763,-0.273 1.199,-0.372c0.437,-0.093 0.907,-0.153 1.397,-0.162c0.123,0.001 0.247,0.002 0.371,0.003c0.125,0.004 0.25,0.017 0.376,0.026c0.126,0.006 0.252,0.027 0.379,0.045c0.127,0.019 0.254,0.038 0.38,0.071c0.125,0.031 0.254,0.054 0.379,0.092c0.124,0.039 0.249,0.079 0.374,0.118c0.245,0.095 0.493,0.188 0.726,0.314c0.467,0.245 0.909,0.546 1.284,0.907c0.047,0.044 0.097,0.086 0.143,0.132l0.131,0.142c0.085,0.097 0.177,0.187 0.253,0.288c0.153,0.203 0.311,0.397 0.435,0.61c0.064,0.105 0.133,0.205 0.19,0.311c0.056,0.107 0.11,0.213 0.163,0.318c0.026,0.053 0.053,0.105 0.079,0.157c0.024,0.053 0.044,0.107 0.066,0.16c0.043,0.106 0.086,0.211 0.128,0.315c0.045,0.102 0.077,0.207 0.109,0.311c0.033,0.103 0.065,0.204 0.096,0.304c0.015,0.05 0.032,0.099 0.045,0.149c0.011,0.05 0.023,0.099 0.034,0.149c0.023,0.098 0.045,0.194 0.066,0.288c0.02,0.095 0.047,0.186 0.06,0.277c0.014,0.092 0.028,0.181 0.041,0.268c0.013,0.086 0.026,0.171 0.038,0.253c0.012,0.082 0.025,0.162 0.03,0.24c0.012,0.156 0.024,0.301 0.035,0.436c0.009,0.134 0.021,0.257 0.02,0.37c0.004,0.223 0.002,0.399 0.003,0.518c0,0.119 0,0.183 0,0.183c0,-0 -0.009,-0.063 -0.025,-0.182c-0.016,-0.118 -0.042,-0.291 -0.069,-0.511c-0.011,-0.111 -0.036,-0.231 -0.06,-0.363c-0.024,-0.131 -0.05,-0.273 -0.077,-0.424c-0.011,-0.076 -0.031,-0.154 -0.051,-0.233c-0.019,-0.079 -0.039,-0.161 -0.059,-0.244c-0.02,-0.084 -0.041,-0.17 -0.061,-0.258c-0.02,-0.088 -0.052,-0.175 -0.078,-0.265c-0.104,-0.362 -0.244,-0.744 -0.412,-1.137c-0.045,-0.097 -0.091,-0.195 -0.138,-0.294c-0.023,-0.05 -0.045,-0.1 -0.071,-0.149c-0.027,-0.048 -0.055,-0.096 -0.083,-0.145c-0.055,-0.097 -0.111,-0.195 -0.166,-0.294c-0.056,-0.099 -0.126,-0.191 -0.189,-0.288c-0.121,-0.196 -0.276,-0.373 -0.424,-0.558c-0.074,-0.092 -0.162,-0.172 -0.244,-0.26l-0.123,-0.13c-0.042,-0.042 -0.089,-0.08 -0.133,-0.121c-0.35,-0.331 -0.761,-0.603 -1.194,-0.825c-0.214,-0.119 -0.442,-0.207 -0.668,-0.298c-0.116,-0.037 -0.232,-0.075 -0.347,-0.112c-0.116,-0.038 -0.235,-0.06 -0.352,-0.091c-0.471,-0.103 -0.946,-0.169 -1.41,-0.173c-0.463,-0.001 -0.912,0.027 -1.334,0.095c-0.106,0.016 -0.209,0.04 -0.311,0.059c-0.051,0.01 -0.101,0.02 -0.152,0.03c-0.049,0.012 -0.098,0.024 -0.147,0.037c-0.098,0.024 -0.194,0.048 -0.289,0.072c-0.092,0.029 -0.184,0.058 -0.273,0.086c-0.045,0.014 -0.089,0.028 -0.133,0.042c-0.042,0.016 -0.085,0.032 -0.127,0.048c-0.084,0.032 -0.166,0.063 -0.246,0.093c-0.156,0.07 -0.307,0.131 -0.444,0.2c-0.273,0.137 -0.504,0.272 -0.689,0.393c-0.091,0.062 -0.172,0.118 -0.242,0.167c-0.07,0.051 -0.126,0.1 -0.173,0.136c-0.093,0.075 -0.143,0.115 -0.143,0.115Z" style="fill:#d0b0ff;fill-rule:nonzero;"/><path d="M20.013,72.01c0,0 0.008,-0.035 0.021,-0.102c0.012,-0.066 0.041,-0.161 0.091,-0.285c0.029,-0.058 0.062,-0.123 0.097,-0.193c0.042,-0.066 0.088,-0.139 0.142,-0.213c0.058,-0.07 0.117,-0.15 0.19,-0.222c0.037,-0.037 0.074,-0.074 0.112,-0.113c0.041,-0.035 0.083,-0.072 0.125,-0.109c0.043,-0.038 0.089,-0.073 0.137,-0.107c0.047,-0.034 0.095,-0.071 0.146,-0.105c0.103,-0.065 0.21,-0.133 0.326,-0.191c0.113,-0.064 0.237,-0.114 0.362,-0.169c0.127,-0.048 0.258,-0.099 0.394,-0.136c0.271,-0.083 0.561,-0.136 0.858,-0.164c0.297,-0.032 0.602,-0.024 0.904,0.004c0.303,0.029 0.601,0.098 0.887,0.185c0.071,0.024 0.142,0.048 0.212,0.073c0.07,0.022 0.136,0.057 0.204,0.085c0.136,0.055 0.264,0.124 0.388,0.192c0.064,0.032 0.122,0.073 0.181,0.109c0.059,0.038 0.117,0.074 0.173,0.113c0.108,0.085 0.218,0.159 0.314,0.247c0.195,0.169 0.363,0.346 0.504,0.518c0.067,0.089 0.135,0.171 0.192,0.253c0.055,0.085 0.106,0.166 0.155,0.241c0.092,0.153 0.157,0.296 0.215,0.408c0.051,0.117 0.085,0.211 0.11,0.274c0.024,0.063 0.036,0.097 0.036,0.097c0,-0 -0.023,-0.028 -0.068,-0.079c-0.043,-0.052 -0.108,-0.127 -0.185,-0.224c-0.042,-0.045 -0.089,-0.096 -0.14,-0.151c-0.053,-0.053 -0.1,-0.117 -0.164,-0.175c-0.06,-0.059 -0.125,-0.122 -0.193,-0.189c-0.07,-0.065 -0.146,-0.129 -0.223,-0.197c-0.157,-0.133 -0.334,-0.266 -0.529,-0.393c-0.096,-0.065 -0.201,-0.121 -0.304,-0.184c-0.11,-0.053 -0.216,-0.115 -0.331,-0.164c-0.228,-0.104 -0.471,-0.19 -0.722,-0.261c-0.254,-0.062 -0.513,-0.122 -0.778,-0.143c-0.264,-0.028 -0.531,-0.038 -0.793,-0.022l-0.098,0.004l-0.098,0.01c-0.065,0.006 -0.13,0.009 -0.193,0.018c-0.128,0.019 -0.254,0.036 -0.377,0.063c-0.125,0.02 -0.242,0.057 -0.36,0.084c-0.116,0.036 -0.23,0.068 -0.338,0.11c-0.218,0.076 -0.417,0.17 -0.593,0.268c-0.044,0.026 -0.087,0.05 -0.13,0.074c-0.04,0.027 -0.079,0.053 -0.118,0.079c-0.08,0.048 -0.143,0.108 -0.212,0.157c-0.064,0.053 -0.118,0.108 -0.174,0.156c-0.049,0.054 -0.094,0.103 -0.135,0.148c-0.035,0.047 -0.068,0.091 -0.098,0.128c-0.031,0.038 -0.048,0.077 -0.067,0.105c-0.035,0.058 -0.055,0.088 -0.055,0.088Z" style="fill:#d0b0ff;fill-rule:nonzero;"/><path d="M7.774,64.877c-0,0 0.023,-0.029 0.066,-0.083c0.043,-0.054 0.104,-0.134 0.2,-0.225c0.024,-0.023 0.049,-0.048 0.075,-0.074c0.027,-0.024 0.056,-0.049 0.086,-0.075c0.059,-0.052 0.125,-0.108 0.201,-0.16c0.074,-0.055 0.155,-0.111 0.245,-0.163c0.044,-0.027 0.09,-0.055 0.138,-0.082c0.049,-0.024 0.098,-0.05 0.149,-0.076c0.101,-0.055 0.214,-0.094 0.328,-0.144c0.057,-0.023 0.117,-0.041 0.178,-0.062c0.061,-0.021 0.123,-0.041 0.187,-0.057c0.253,-0.075 0.53,-0.119 0.82,-0.144c0.072,-0.004 0.145,-0.008 0.219,-0.012c0.074,-0.002 0.149,0.001 0.224,0.002c0.075,-0.001 0.15,0.005 0.226,0.012c0.076,0.007 0.152,0.011 0.228,0.025c0.306,0.037 0.611,0.123 0.906,0.234c0.072,0.031 0.147,0.057 0.217,0.094l0.212,0.106c0.137,0.079 0.273,0.158 0.396,0.254c0.13,0.088 0.243,0.195 0.357,0.297c0.104,0.111 0.214,0.215 0.301,0.335c0.19,0.228 0.326,0.48 0.444,0.718c0.049,0.124 0.104,0.241 0.141,0.36c0.034,0.12 0.075,0.232 0.099,0.344c0.022,0.112 0.046,0.219 0.063,0.32c0.011,0.103 0.022,0.2 0.032,0.291c0.016,0.182 0.01,0.342 0.012,0.471c-0.006,0.13 -0.017,0.232 -0.022,0.301c-0.007,0.069 -0.011,0.106 -0.011,0.106c0,-0 -0.009,-0.036 -0.026,-0.104c-0.015,-0.067 -0.041,-0.165 -0.067,-0.289c-0.018,-0.061 -0.037,-0.129 -0.058,-0.202c-0.024,-0.073 -0.038,-0.154 -0.07,-0.235c-0.028,-0.082 -0.058,-0.17 -0.089,-0.262c-0.037,-0.089 -0.075,-0.183 -0.115,-0.281c-0.04,-0.097 -0.093,-0.193 -0.141,-0.294c-0.051,-0.099 -0.113,-0.196 -0.171,-0.299c-0.132,-0.194 -0.272,-0.396 -0.449,-0.575c-0.083,-0.095 -0.182,-0.175 -0.275,-0.264c-0.103,-0.077 -0.2,-0.162 -0.311,-0.232c-0.106,-0.077 -0.225,-0.136 -0.338,-0.203l-0.18,-0.087c-0.059,-0.03 -0.123,-0.05 -0.184,-0.076c-0.249,-0.097 -0.507,-0.174 -0.769,-0.218c-0.262,-0.044 -0.525,-0.073 -0.781,-0.074c-0.256,0.002 -0.506,0.012 -0.741,0.049c-0.119,0.013 -0.231,0.04 -0.342,0.059c-0.109,0.027 -0.217,0.047 -0.317,0.079c-0.05,0.015 -0.1,0.029 -0.148,0.043c-0.048,0.015 -0.094,0.034 -0.139,0.049c-0.046,0.016 -0.091,0.03 -0.133,0.047c-0.042,0.018 -0.083,0.035 -0.123,0.052c-0.082,0.03 -0.153,0.068 -0.222,0.1c-0.034,0.017 -0.067,0.032 -0.098,0.047c-0.03,0.017 -0.059,0.033 -0.086,0.049c-0.054,0.031 -0.104,0.057 -0.147,0.083c-0.042,0.027 -0.078,0.05 -0.107,0.069c-0.059,0.037 -0.09,0.056 -0.09,0.056Z" style="fill:#d0b0ff;fill-rule:nonzero;"/><path d="M8.957,63.453c-0.035,-0.076 -0.078,-0.151 -0.119,-0.229c-0.095,-0.15 -0.202,-0.307 -0.34,-0.445c-0.065,-0.074 -0.143,-0.136 -0.218,-0.204c-0.039,-0.031 -0.081,-0.061 -0.121,-0.091c-0.021,-0.015 -0.042,-0.031 -0.063,-0.045l-0.065,-0.041c-0.173,-0.112 -0.366,-0.198 -0.563,-0.265c-0.05,-0.015 -0.099,-0.034 -0.15,-0.045l-0.151,-0.037c-0.051,-0.011 -0.102,-0.018 -0.153,-0.027c-0.051,-0.009 -0.102,-0.013 -0.153,-0.018c-0.102,-0.013 -0.204,-0.012 -0.304,-0.013c-0.1,0.005 -0.199,0.007 -0.295,0.022c-0.097,0.01 -0.191,0.031 -0.282,0.05c-0.09,0.026 -0.179,0.046 -0.262,0.08c-0.108,0.037 -0.209,0.083 -0.301,0.133c0.034,0.057 0.071,0.114 0.11,0.169c0.082,-0.031 0.168,-0.06 0.26,-0.082c0.077,-0.023 0.16,-0.035 0.243,-0.052c0.085,-0.009 0.17,-0.024 0.258,-0.027c0.088,-0.008 0.177,-0.005 0.268,-0.006c0.09,0.006 0.181,0.009 0.273,0.022c0.091,0.008 0.182,0.03 0.273,0.047l0.135,0.034c0.046,0.01 0.089,0.028 0.134,0.042c0.176,0.058 0.348,0.134 0.504,0.228l0.06,0.035c0.019,0.012 0.037,0.025 0.056,0.038c0.037,0.026 0.076,0.05 0.112,0.076c0.069,0.057 0.141,0.109 0.203,0.171c0.132,0.116 0.239,0.249 0.338,0.378c0.045,0.067 0.09,0.132 0.13,0.198c0.037,0.067 0.076,0.131 0.108,0.195c0.031,0.066 0.06,0.128 0.088,0.188c0.024,0.062 0.046,0.12 0.068,0.175c0.024,0.055 0.036,0.109 0.052,0.158c0.016,0.05 0.031,0.095 0.044,0.136c0.019,0.084 0.037,0.149 0.048,0.195c0.012,0.045 0.018,0.069 0.018,0.069c0,-0 -0,-0.025 -0.001,-0.072c-0.001,-0.046 -0.001,-0.115 -0.005,-0.203c-0.005,-0.043 -0.01,-0.091 -0.016,-0.144c-0.007,-0.052 -0.011,-0.11 -0.026,-0.17c-0.012,-0.06 -0.026,-0.124 -0.041,-0.192c-0.02,-0.067 -0.042,-0.136 -0.064,-0.209c-0.025,-0.073 -0.059,-0.145 -0.09,-0.222Z" style="fill:#d0b0ff;fill-rule:nonzero;"/><path d="M19.207,72.168c-0.079,-0.169 -0.174,-0.337 -0.267,-0.513c-0.213,-0.336 -0.453,-0.688 -0.763,-0.998c-0.145,-0.166 -0.32,-0.305 -0.489,-0.456c-0.088,-0.071 -0.181,-0.137 -0.273,-0.206c-0.046,-0.033 -0.092,-0.068 -0.139,-0.101l-0.147,-0.09c-0.388,-0.253 -0.82,-0.445 -1.262,-0.596c-0.112,-0.033 -0.222,-0.076 -0.336,-0.101l-0.34,-0.083c-0.114,-0.024 -0.229,-0.041 -0.343,-0.06c-0.114,-0.021 -0.229,-0.03 -0.344,-0.041c-0.228,-0.028 -0.456,-0.025 -0.681,-0.029c-0.224,0.012 -0.446,0.016 -0.662,0.05c-0.217,0.022 -0.427,0.07 -0.632,0.112c-0.202,0.059 -0.402,0.103 -0.587,0.179c-0.243,0.083 -0.468,0.187 -0.677,0.299c0.077,0.128 0.16,0.255 0.249,0.379c0.183,-0.07 0.376,-0.135 0.581,-0.184c0.174,-0.051 0.36,-0.078 0.546,-0.116c0.19,-0.02 0.381,-0.055 0.579,-0.061c0.197,-0.018 0.398,-0.011 0.6,-0.014c0.203,0.015 0.408,0.02 0.612,0.05c0.206,0.019 0.409,0.068 0.614,0.105l0.304,0.077c0.102,0.023 0.199,0.063 0.299,0.093c0.396,0.131 0.78,0.3 1.131,0.513l0.133,0.076c0.043,0.028 0.085,0.058 0.127,0.087c0.083,0.057 0.169,0.111 0.25,0.171c0.156,0.127 0.318,0.245 0.457,0.383c0.295,0.261 0.535,0.559 0.757,0.847c0.101,0.151 0.203,0.297 0.293,0.444c0.083,0.151 0.17,0.294 0.242,0.439c0.069,0.146 0.134,0.287 0.197,0.42c0.053,0.139 0.104,0.27 0.151,0.394c0.054,0.123 0.081,0.244 0.119,0.354c0.035,0.111 0.067,0.213 0.097,0.305c0.043,0.187 0.083,0.335 0.108,0.436c0.026,0.102 0.041,0.156 0.041,0.156c-0,-0 -0.001,-0.056 -0.002,-0.161c-0.003,-0.104 -0.003,-0.258 -0.012,-0.455c-0.011,-0.098 -0.023,-0.206 -0.037,-0.323c-0.014,-0.118 -0.024,-0.248 -0.056,-0.382c-0.029,-0.135 -0.06,-0.279 -0.092,-0.431c-0.046,-0.149 -0.095,-0.306 -0.146,-0.469c-0.055,-0.163 -0.131,-0.326 -0.2,-0.499Z" style="fill:#d0b0ff;fill-rule:nonzero;"/><path d="M45.18,72.064c-0.184,-0.032 -0.376,-0.05 -0.574,-0.074c-0.397,-0.018 -0.823,-0.022 -1.255,0.055c-0.219,0.025 -0.433,0.088 -0.654,0.141c-0.108,0.031 -0.215,0.07 -0.324,0.106c-0.054,0.019 -0.109,0.036 -0.163,0.057l-0.158,0.068c-0.429,0.174 -0.834,0.418 -1.21,0.696c-0.092,0.073 -0.189,0.138 -0.275,0.217l-0.263,0.232c-0.084,0.08 -0.164,0.165 -0.245,0.248c-0.082,0.081 -0.156,0.17 -0.23,0.258c-0.153,0.171 -0.281,0.36 -0.413,0.542c-0.119,0.191 -0.242,0.375 -0.337,0.572c-0.107,0.191 -0.187,0.391 -0.27,0.582c-0.067,0.2 -0.145,0.389 -0.189,0.585c-0.07,0.247 -0.113,0.491 -0.141,0.726c0.149,0.01 0.3,0.014 0.453,0.013c0.047,-0.191 0.105,-0.386 0.182,-0.583c0.057,-0.172 0.141,-0.34 0.216,-0.514c0.092,-0.167 0.173,-0.344 0.281,-0.51c0.098,-0.171 0.218,-0.333 0.332,-0.501c0.127,-0.157 0.249,-0.323 0.391,-0.473c0.133,-0.159 0.289,-0.297 0.436,-0.444l0.237,-0.205c0.077,-0.071 0.166,-0.127 0.248,-0.192c0.334,-0.25 0.692,-0.469 1.067,-0.636l0.139,-0.065c0.047,-0.02 0.095,-0.036 0.143,-0.054c0.095,-0.036 0.189,-0.076 0.284,-0.108c0.193,-0.055 0.382,-0.121 0.575,-0.156c0.383,-0.093 0.764,-0.119 1.128,-0.137c0.181,0.004 0.36,0.003 0.532,0.013c0.171,0.019 0.338,0.029 0.498,0.053c0.159,0.027 0.312,0.053 0.458,0.078c0.144,0.036 0.281,0.069 0.409,0.101c0.132,0.026 0.247,0.074 0.358,0.105c0.112,0.035 0.214,0.066 0.306,0.095c0.178,0.072 0.322,0.123 0.42,0.161c0.098,0.036 0.151,0.055 0.151,0.055c-0,0 -0.046,-0.031 -0.133,-0.09c-0.087,-0.057 -0.214,-0.145 -0.38,-0.25c-0.087,-0.047 -0.182,-0.099 -0.287,-0.155c-0.105,-0.056 -0.217,-0.122 -0.345,-0.172c-0.127,-0.054 -0.263,-0.111 -0.406,-0.171c-0.149,-0.047 -0.305,-0.097 -0.468,-0.149c-0.166,-0.047 -0.343,-0.078 -0.524,-0.12Z" style="fill:#d0b0ff;fill-rule:nonzero;"/><path d="M33.484,72.52c-0,-0 0.012,-0.028 0.034,-0.079c0.024,-0.05 0.054,-0.126 0.103,-0.218c0.026,-0.046 0.055,-0.096 0.087,-0.151c0.016,-0.028 0.033,-0.057 0.052,-0.087c0.02,-0.028 0.041,-0.056 0.062,-0.086c0.084,-0.122 0.191,-0.252 0.321,-0.383c0.131,-0.128 0.283,-0.262 0.463,-0.378c0.045,-0.028 0.09,-0.058 0.137,-0.087c0.048,-0.026 0.097,-0.052 0.147,-0.078c0.098,-0.057 0.207,-0.095 0.314,-0.142c0.055,-0.021 0.111,-0.038 0.168,-0.057c0.056,-0.019 0.114,-0.037 0.173,-0.049c0.058,-0.015 0.117,-0.029 0.176,-0.043c0.061,-0.01 0.121,-0.02 0.181,-0.03c0.243,-0.035 0.494,-0.049 0.741,-0.034c0.248,0.013 0.494,0.046 0.73,0.104c0.238,0.053 0.465,0.13 0.677,0.22c0.213,0.087 0.409,0.195 0.588,0.305c0.179,0.112 0.337,0.235 0.474,0.357c0.068,0.061 0.131,0.123 0.189,0.183c0.054,0.064 0.109,0.121 0.153,0.181c0.093,0.116 0.16,0.227 0.211,0.32c0.024,0.047 0.045,0.089 0.062,0.126c0.016,0.038 0.026,0.071 0.037,0.097c0.018,0.053 0.028,0.081 0.028,0.081c-0,0 -0.018,-0.024 -0.052,-0.068c-0.016,-0.022 -0.035,-0.051 -0.06,-0.081c-0.027,-0.03 -0.057,-0.065 -0.089,-0.103c-0.069,-0.075 -0.157,-0.161 -0.263,-0.252c-0.051,-0.046 -0.113,-0.089 -0.174,-0.137c-0.065,-0.044 -0.129,-0.094 -0.201,-0.139c-0.073,-0.045 -0.147,-0.093 -0.229,-0.135c-0.08,-0.045 -0.165,-0.087 -0.252,-0.13c-0.176,-0.082 -0.364,-0.162 -0.565,-0.227c-0.1,-0.036 -0.204,-0.062 -0.307,-0.093c-0.106,-0.024 -0.212,-0.054 -0.32,-0.073c-0.216,-0.043 -0.438,-0.072 -0.66,-0.081c-0.222,-0.016 -0.444,-0.005 -0.661,0.017c-0.217,0.019 -0.425,0.07 -0.625,0.123c-0.098,0.033 -0.197,0.06 -0.288,0.101c-0.047,0.018 -0.093,0.037 -0.138,0.055c-0.044,0.022 -0.088,0.043 -0.13,0.065c-0.172,0.084 -0.327,0.182 -0.466,0.28c-0.134,0.103 -0.258,0.201 -0.359,0.299c-0.026,0.023 -0.051,0.047 -0.075,0.069c-0.022,0.024 -0.044,0.046 -0.065,0.068c-0.042,0.045 -0.081,0.085 -0.117,0.122c-0.134,0.158 -0.212,0.248 -0.212,0.248Z" style="fill:#d0b0ff;fill-rule:nonzero;"/><path d="M25.764,75c-0,-0 -0.001,-0.05 -0.003,-0.142c-0,-0.046 -0,-0.103 -0.001,-0.17c-0,-0.067 0.011,-0.145 0.019,-0.233c0.005,-0.044 0.01,-0.091 0.015,-0.14c0.008,-0.048 0.019,-0.097 0.029,-0.149c0.02,-0.105 0.043,-0.219 0.082,-0.336c0.018,-0.059 0.037,-0.121 0.056,-0.184c0.021,-0.062 0.049,-0.124 0.074,-0.189c0.027,-0.065 0.052,-0.133 0.085,-0.198c0.033,-0.066 0.067,-0.133 0.102,-0.202c0.018,-0.034 0.035,-0.069 0.055,-0.103c0.02,-0.033 0.042,-0.067 0.063,-0.101c0.042,-0.068 0.085,-0.138 0.131,-0.208c0.099,-0.133 0.198,-0.277 0.317,-0.408c0.23,-0.272 0.509,-0.529 0.823,-0.76c0.313,-0.234 0.667,-0.436 1.046,-0.596c0.095,-0.04 0.189,-0.082 0.289,-0.114c0.098,-0.033 0.196,-0.07 0.296,-0.098c0.101,-0.026 0.203,-0.052 0.304,-0.078c0.101,-0.026 0.206,-0.04 0.309,-0.061c0.414,-0.063 0.836,-0.094 1.248,-0.054c0.412,0.034 0.813,0.111 1.183,0.237c0.187,0.056 0.363,0.133 0.535,0.207c0.087,0.033 0.166,0.083 0.247,0.122c0.081,0.043 0.161,0.082 0.237,0.128c0.075,0.047 0.148,0.094 0.22,0.14c0.071,0.048 0.145,0.088 0.209,0.141c0.065,0.05 0.129,0.1 0.192,0.148c0.063,0.05 0.127,0.094 0.181,0.147c0.112,0.104 0.221,0.2 0.319,0.295c0.093,0.101 0.181,0.197 0.264,0.287c0.084,0.089 0.15,0.183 0.215,0.265c0.063,0.084 0.121,0.16 0.174,0.23c0.095,0.145 0.166,0.262 0.215,0.34c0.048,0.079 0.073,0.121 0.073,0.121c-0,0 -0.038,-0.031 -0.109,-0.091c-0.07,-0.06 -0.174,-0.146 -0.301,-0.259c-0.067,-0.052 -0.141,-0.11 -0.221,-0.173c-0.082,-0.061 -0.162,-0.136 -0.261,-0.2c-0.095,-0.067 -0.196,-0.138 -0.302,-0.214c-0.109,-0.068 -0.225,-0.141 -0.345,-0.216c-0.12,-0.074 -0.252,-0.139 -0.383,-0.212c-0.133,-0.071 -0.277,-0.13 -0.42,-0.199c-0.073,-0.03 -0.149,-0.057 -0.224,-0.087c-0.076,-0.027 -0.15,-0.063 -0.23,-0.084c-0.159,-0.045 -0.316,-0.104 -0.484,-0.136c-0.083,-0.017 -0.166,-0.042 -0.251,-0.055c-0.085,-0.014 -0.17,-0.028 -0.256,-0.042c-0.085,-0.017 -0.174,-0.017 -0.261,-0.027c-0.087,-0.009 -0.175,-0.019 -0.263,-0.018c-0.354,-0.019 -0.713,0.01 -1.067,0.068c-0.355,0.053 -0.702,0.154 -1.034,0.279c-0.167,0.059 -0.326,0.137 -0.485,0.208c-0.154,0.082 -0.308,0.16 -0.452,0.252c-0.289,0.179 -0.558,0.374 -0.789,0.588c-0.122,0.1 -0.222,0.216 -0.33,0.319c-0.049,0.056 -0.097,0.111 -0.145,0.166c-0.024,0.027 -0.047,0.054 -0.07,0.08c-0.023,0.028 -0.043,0.056 -0.065,0.084c-0.042,0.055 -0.084,0.109 -0.124,0.162c-0.041,0.053 -0.073,0.11 -0.11,0.162c-0.034,0.054 -0.072,0.105 -0.102,0.157c-0.03,0.053 -0.059,0.105 -0.087,0.154c-0.061,0.099 -0.103,0.198 -0.147,0.288c-0.022,0.046 -0.044,0.089 -0.062,0.131c-0.017,0.043 -0.033,0.084 -0.048,0.122c-0.029,0.078 -0.061,0.147 -0.081,0.211c-0.02,0.064 -0.037,0.118 -0.05,0.163c-0.029,0.088 -0.044,0.135 -0.044,0.135Z" style="fill:#d0b0ff;fill-rule:nonzero;"/><path d="M33.993,74.174c-0,0 0.005,-0.018 0.014,-0.053c0.01,-0.034 0.02,-0.086 0.046,-0.148c0.023,-0.065 0.057,-0.14 0.102,-0.224c0.024,-0.041 0.049,-0.086 0.078,-0.131c0.031,-0.044 0.063,-0.092 0.101,-0.137c0.074,-0.093 0.161,-0.189 0.267,-0.277c0.105,-0.088 0.223,-0.175 0.357,-0.246c0.132,-0.072 0.277,-0.135 0.431,-0.178c0.154,-0.044 0.315,-0.074 0.477,-0.082c0.163,-0.008 0.327,0 0.485,0.028c0.158,0.03 0.31,0.076 0.45,0.136c0.138,0.062 0.267,0.133 0.377,0.216c0.113,0.079 0.207,0.168 0.289,0.254c0.081,0.085 0.148,0.17 0.201,0.249c0.057,0.075 0.093,0.151 0.127,0.208c0.032,0.059 0.051,0.109 0.067,0.141c0.014,0.033 0.022,0.051 0.022,0.051c-0,-0 -0.056,-0.055 -0.147,-0.149c-0.049,-0.044 -0.104,-0.101 -0.173,-0.158c-0.068,-0.06 -0.148,-0.121 -0.235,-0.185c-0.089,-0.061 -0.187,-0.123 -0.296,-0.178c-0.106,-0.059 -0.225,-0.104 -0.348,-0.147c-0.124,-0.04 -0.255,-0.068 -0.389,-0.088c-0.134,-0.016 -0.272,-0.022 -0.409,-0.015c-0.138,0.006 -0.274,0.03 -0.407,0.06c-0.133,0.031 -0.26,0.076 -0.381,0.127c-0.121,0.05 -0.232,0.112 -0.336,0.175c-0.051,0.033 -0.101,0.065 -0.147,0.1c-0.048,0.032 -0.09,0.069 -0.132,0.102c-0.082,0.071 -0.154,0.14 -0.216,0.204c-0.059,0.067 -0.112,0.126 -0.151,0.177c-0.041,0.051 -0.071,0.095 -0.092,0.124c-0.021,0.029 -0.032,0.044 -0.032,0.044Z" style="fill:#d0b0ff;fill-rule:nonzero;"/><path d="M31.152,81.747c-0,-0 -0.002,-0.016 -0.005,-0.047c-0.002,-0.031 -0.012,-0.075 -0.012,-0.132c-0,-0.029 -0.001,-0.061 -0.002,-0.096c0,-0.035 0.004,-0.073 0.006,-0.113c0.005,-0.081 0.017,-0.172 0.04,-0.27c0.01,-0.049 0.027,-0.099 0.041,-0.152c0.018,-0.051 0.036,-0.104 0.06,-0.157c0.045,-0.107 0.107,-0.214 0.181,-0.319c0.075,-0.103 0.164,-0.202 0.267,-0.29c0.102,-0.088 0.219,-0.163 0.342,-0.224c0.124,-0.059 0.255,-0.105 0.388,-0.13c0.133,-0.026 0.266,-0.033 0.394,-0.027c0.128,0.008 0.25,0.027 0.361,0.061c0.113,0.028 0.214,0.071 0.304,0.113c0.091,0.044 0.17,0.09 0.237,0.135c0.069,0.042 0.121,0.089 0.168,0.123c0.044,0.036 0.077,0.068 0.1,0.089c0.022,0.02 0.034,0.031 0.034,0.031c0,0 -0.056,-0.033 -0.155,-0.09c-0.051,-0.025 -0.109,-0.061 -0.181,-0.092c-0.071,-0.034 -0.153,-0.066 -0.242,-0.099c-0.091,-0.03 -0.19,-0.059 -0.296,-0.078c-0.105,-0.022 -0.219,-0.029 -0.334,-0.032c-0.117,-0.002 -0.236,0.015 -0.354,0.039c-0.119,0.024 -0.235,0.067 -0.345,0.121c-0.11,0.052 -0.216,0.118 -0.309,0.196c-0.092,0.077 -0.18,0.16 -0.252,0.251c-0.07,0.093 -0.136,0.185 -0.186,0.281c-0.05,0.095 -0.091,0.189 -0.123,0.279c-0.031,0.09 -0.055,0.175 -0.072,0.251c-0.017,0.076 -0.028,0.143 -0.036,0.199c-0.009,0.056 -0.011,0.102 -0.015,0.132c-0.003,0.031 -0.004,0.047 -0.004,0.047Z" style="fill:#d0b0ff;fill-rule:nonzero;"/><path d="M34.003,80.398c0,0 0.004,-0.014 0.01,-0.04c0.008,-0.026 0.014,-0.066 0.031,-0.114c0.018,-0.048 0.037,-0.109 0.071,-0.172c0.015,-0.033 0.033,-0.067 0.055,-0.101c0.021,-0.035 0.045,-0.072 0.073,-0.107c0.027,-0.036 0.057,-0.072 0.091,-0.107c0.032,-0.037 0.071,-0.069 0.111,-0.103c0.08,-0.066 0.172,-0.129 0.276,-0.177c0.205,-0.101 0.45,-0.151 0.692,-0.151c0.121,-0 0.242,0.016 0.358,0.039c0.118,0.022 0.228,0.064 0.332,0.108c0.105,0.044 0.198,0.103 0.283,0.162c0.082,0.063 0.157,0.127 0.215,0.197c0.12,0.134 0.185,0.273 0.216,0.37c0.019,0.048 0.024,0.089 0.031,0.115c0.005,0.027 0.008,0.041 0.008,0.041c0,-0 -0.006,-0.013 -0.018,-0.038c-0.011,-0.024 -0.027,-0.061 -0.054,-0.103c-0.049,-0.087 -0.132,-0.202 -0.257,-0.312c-0.061,-0.056 -0.137,-0.106 -0.216,-0.156c-0.083,-0.047 -0.172,-0.092 -0.269,-0.127c-0.193,-0.071 -0.411,-0.115 -0.63,-0.114c-0.109,-0.001 -0.219,0.006 -0.324,0.028c-0.105,0.021 -0.208,0.047 -0.302,0.088c-0.094,0.038 -0.182,0.085 -0.26,0.138c-0.038,0.027 -0.075,0.054 -0.109,0.083c-0.035,0.028 -0.066,0.057 -0.095,0.088c-0.031,0.028 -0.056,0.059 -0.081,0.088c-0.026,0.029 -0.047,0.058 -0.066,0.086c-0.042,0.056 -0.071,0.108 -0.098,0.15c-0.048,0.089 -0.074,0.141 -0.074,0.141Z" style="fill:#d0b0ff;fill-rule:nonzero;"/><path d="M25.423,77.693c-0,-0 -0.004,-0.024 -0.009,-0.069c-0.004,-0.045 -0.017,-0.11 -0.02,-0.195c0.001,-0.084 -0.008,-0.191 0.008,-0.309c0.005,-0.06 0.01,-0.124 0.024,-0.191c0.012,-0.066 0.025,-0.137 0.048,-0.208c0.021,-0.072 0.043,-0.148 0.075,-0.223c0.015,-0.038 0.03,-0.077 0.049,-0.114c0.019,-0.038 0.039,-0.076 0.06,-0.114c0.019,-0.039 0.042,-0.077 0.067,-0.114c0.025,-0.038 0.049,-0.077 0.075,-0.115c0.056,-0.072 0.113,-0.148 0.182,-0.216c0.13,-0.141 0.288,-0.266 0.462,-0.369c0.174,-0.105 0.365,-0.188 0.564,-0.242c0.198,-0.052 0.404,-0.084 0.607,-0.083c0.202,0.001 0.401,0.029 0.587,0.079c0.185,0.053 0.356,0.127 0.507,0.217c0.039,0.019 0.073,0.046 0.108,0.069c0.035,0.025 0.071,0.045 0.102,0.072c0.062,0.055 0.126,0.101 0.176,0.157c0.109,0.104 0.194,0.213 0.26,0.314c0.031,0.051 0.065,0.096 0.088,0.143c0.023,0.046 0.044,0.088 0.063,0.126c0.04,0.076 0.056,0.142 0.074,0.183c0.015,0.043 0.023,0.066 0.023,0.066c0,-0 -0.014,-0.02 -0.042,-0.056c-0.027,-0.036 -0.063,-0.091 -0.116,-0.154c-0.027,-0.032 -0.056,-0.067 -0.088,-0.105c-0.033,-0.037 -0.071,-0.074 -0.11,-0.115c-0.038,-0.042 -0.085,-0.079 -0.133,-0.12c-0.045,-0.043 -0.099,-0.082 -0.154,-0.122c-0.11,-0.081 -0.238,-0.152 -0.377,-0.217c-0.14,-0.064 -0.295,-0.108 -0.456,-0.144c-0.163,-0.031 -0.334,-0.043 -0.506,-0.039c-0.173,0.006 -0.348,0.034 -0.517,0.081c-0.17,0.043 -0.332,0.113 -0.483,0.196c-0.078,0.039 -0.147,0.089 -0.219,0.135c-0.067,0.052 -0.135,0.101 -0.195,0.159c-0.064,0.052 -0.116,0.116 -0.173,0.172c-0.027,0.03 -0.051,0.062 -0.076,0.092c-0.026,0.03 -0.05,0.06 -0.07,0.093c-0.022,0.032 -0.043,0.063 -0.064,0.094c-0.021,0.032 -0.037,0.065 -0.056,0.096c-0.04,0.062 -0.069,0.127 -0.098,0.189c-0.032,0.061 -0.051,0.124 -0.075,0.183c-0.025,0.058 -0.041,0.116 -0.057,0.17c-0.035,0.109 -0.052,0.206 -0.072,0.287c-0.015,0.082 -0.024,0.148 -0.032,0.192c-0.007,0.045 -0.011,0.069 -0.011,0.069Z" style="fill:#d0b0ff;fill-rule:nonzero;"/><path d="M21.777,79.656c-0,0 -0.008,-0.028 -0.023,-0.081c-0.012,-0.054 -0.043,-0.129 -0.055,-0.232c-0.007,-0.051 -0.019,-0.107 -0.026,-0.169c-0.004,-0.063 -0.009,-0.13 -0.013,-0.202c-0.001,-0.072 0.003,-0.149 0.004,-0.231c0.008,-0.081 0.019,-0.166 0.033,-0.255c0.037,-0.174 0.083,-0.365 0.171,-0.553c0.036,-0.096 0.092,-0.187 0.141,-0.284c0.058,-0.091 0.114,-0.187 0.185,-0.275c0.065,-0.092 0.143,-0.176 0.219,-0.263c0.083,-0.081 0.164,-0.167 0.257,-0.24c0.181,-0.152 0.382,-0.288 0.597,-0.396c0.215,-0.108 0.44,-0.197 0.671,-0.252c0.229,-0.057 0.462,-0.088 0.687,-0.088c0.113,-0.006 0.224,0.007 0.332,0.013c0.053,0.008 0.106,0.016 0.159,0.024c0.052,0.007 0.103,0.016 0.153,0.029c0.05,0.012 0.1,0.024 0.148,0.036c0.049,0.012 0.095,0.03 0.141,0.045c0.045,0.016 0.091,0.029 0.134,0.047c0.042,0.019 0.084,0.037 0.125,0.056c0.083,0.033 0.157,0.076 0.228,0.116c0.072,0.037 0.136,0.081 0.195,0.122c0.121,0.078 0.215,0.163 0.295,0.227c0.079,0.066 0.132,0.127 0.172,0.165c0.039,0.038 0.06,0.059 0.06,0.059c0,-0 -0.023,-0.018 -0.066,-0.052c-0.044,-0.033 -0.105,-0.085 -0.188,-0.145c-0.085,-0.056 -0.183,-0.131 -0.309,-0.196c-0.061,-0.036 -0.126,-0.072 -0.2,-0.103c-0.071,-0.032 -0.145,-0.07 -0.227,-0.097c-0.041,-0.015 -0.082,-0.03 -0.124,-0.045c-0.042,-0.015 -0.087,-0.025 -0.131,-0.038c-0.045,-0.011 -0.09,-0.027 -0.136,-0.036c-0.047,-0.009 -0.095,-0.018 -0.143,-0.027c-0.048,-0.011 -0.097,-0.017 -0.148,-0.022c-0.049,-0.005 -0.1,-0.01 -0.151,-0.016c-0.103,0.001 -0.208,-0.011 -0.314,-0.002c-0.214,0.004 -0.432,0.044 -0.649,0.099c-0.217,0.053 -0.429,0.139 -0.631,0.243c-0.204,0.1 -0.395,0.227 -0.567,0.369c-0.089,0.069 -0.167,0.148 -0.248,0.222c-0.074,0.081 -0.151,0.158 -0.215,0.244c-0.069,0.081 -0.124,0.171 -0.183,0.255c-0.051,0.089 -0.108,0.173 -0.146,0.263c-0.021,0.045 -0.043,0.088 -0.062,0.131c-0.017,0.045 -0.034,0.089 -0.05,0.132c-0.018,0.043 -0.032,0.086 -0.043,0.129c-0.013,0.043 -0.025,0.085 -0.037,0.126c-0.019,0.084 -0.034,0.165 -0.048,0.243c-0.008,0.078 -0.019,0.152 -0.024,0.222c-0.001,0.07 -0.003,0.136 -0.004,0.197c0.002,0.061 0.008,0.117 0.011,0.168c0.004,0.101 0.023,0.181 0.03,0.235c0.008,0.054 0.013,0.083 0.013,0.083Z" style="fill:#d0b0ff;fill-rule:nonzero;"/><path d="M13.45,74.731c-0,0 -0,-0.023 -0,-0.066c0.002,-0.044 -0.002,-0.108 0.006,-0.188c0.009,-0.081 0.015,-0.183 0.042,-0.294c0.01,-0.057 0.023,-0.117 0.042,-0.179c0.017,-0.063 0.037,-0.128 0.064,-0.194c0.025,-0.068 0.053,-0.137 0.089,-0.207c0.031,-0.071 0.074,-0.14 0.117,-0.211c0.089,-0.141 0.196,-0.283 0.329,-0.41c0.13,-0.13 0.283,-0.249 0.452,-0.344c0.169,-0.097 0.352,-0.176 0.544,-0.226c0.192,-0.049 0.389,-0.076 0.583,-0.078c0.195,-0 0.385,0.026 0.563,0.069c0.179,0.044 0.343,0.111 0.493,0.185c0.147,0.078 0.278,0.164 0.389,0.255c0.056,0.045 0.11,0.087 0.155,0.135c0.046,0.045 0.09,0.088 0.127,0.132c0.037,0.045 0.075,0.082 0.104,0.123c0.028,0.04 0.055,0.077 0.079,0.11c0.049,0.066 0.076,0.125 0.1,0.161c0.021,0.038 0.033,0.058 0.033,0.058c-0,0 -0.018,-0.016 -0.05,-0.045c-0.032,-0.029 -0.076,-0.074 -0.137,-0.125c-0.061,-0.052 -0.135,-0.114 -0.223,-0.179c-0.042,-0.034 -0.092,-0.065 -0.143,-0.098c-0.05,-0.034 -0.105,-0.066 -0.162,-0.099c-0.115,-0.066 -0.245,-0.123 -0.384,-0.177c-0.14,-0.05 -0.29,-0.093 -0.448,-0.12c-0.158,-0.025 -0.322,-0.036 -0.489,-0.031c-0.166,0.009 -0.333,0.033 -0.496,0.076c-0.164,0.04 -0.319,0.107 -0.467,0.183c-0.074,0.037 -0.143,0.083 -0.213,0.126c-0.065,0.048 -0.133,0.094 -0.192,0.147c-0.064,0.049 -0.117,0.107 -0.174,0.159c-0.052,0.057 -0.105,0.112 -0.151,0.171c-0.046,0.058 -0.091,0.115 -0.129,0.175c-0.042,0.057 -0.077,0.116 -0.11,0.173c-0.036,0.056 -0.061,0.114 -0.089,0.169c-0.03,0.053 -0.053,0.106 -0.074,0.157c-0.045,0.1 -0.075,0.19 -0.103,0.265c-0.049,0.154 -0.077,0.242 -0.077,0.242Z" style="fill:#d0b0ff;fill-rule:nonzero;"/><path d="M44.441,70.364c0,0 -0.019,-0.07 -0.046,-0.193c-0.01,-0.062 -0.025,-0.139 -0.033,-0.228c-0.004,-0.044 -0.009,-0.092 -0.013,-0.141c-0.004,-0.05 -0.002,-0.103 -0.003,-0.158c-0,-0.111 0.006,-0.231 0.024,-0.359c0.02,-0.127 0.048,-0.262 0.097,-0.397c0.091,-0.271 0.259,-0.547 0.496,-0.758c0.236,-0.21 0.528,-0.349 0.809,-0.408c0.14,-0.031 0.277,-0.047 0.406,-0.049c0.129,-0.005 0.25,0.005 0.36,0.018c0.11,0.014 0.209,0.035 0.295,0.056c0.087,0.021 0.161,0.045 0.221,0.067c0.06,0.018 0.105,0.041 0.137,0.053c0.031,0.014 0.048,0.021 0.048,0.021c-0,-0 -0.072,-0.001 -0.198,-0.003c-0.062,-0.002 -0.138,0 -0.223,0.001c-0.086,0.002 -0.182,0.008 -0.285,0.015c-0.206,0.02 -0.442,0.055 -0.676,0.133c-0.117,0.038 -0.233,0.088 -0.343,0.149c-0.11,0.062 -0.215,0.134 -0.309,0.219c-0.096,0.082 -0.178,0.18 -0.252,0.282c-0.073,0.103 -0.136,0.212 -0.187,0.324c-0.053,0.112 -0.093,0.226 -0.129,0.337c-0.033,0.111 -0.062,0.219 -0.084,0.32c-0.021,0.102 -0.039,0.197 -0.053,0.281c-0.012,0.086 -0.023,0.16 -0.032,0.221c-0.014,0.125 -0.027,0.197 -0.027,0.197Z" style="fill:#d0b0ff;fill-rule:nonzero;"/><path d="M39.04,73.244c-0,0 -0.002,-0.107 0.006,-0.293c0.008,-0.093 0.015,-0.209 0.035,-0.338c0.011,-0.065 0.022,-0.135 0.034,-0.208c0.014,-0.073 0.035,-0.147 0.054,-0.227c0.041,-0.158 0.095,-0.328 0.168,-0.504c0.076,-0.174 0.166,-0.357 0.285,-0.532c0.231,-0.354 0.574,-0.688 0.99,-0.902c0.416,-0.212 0.886,-0.303 1.309,-0.284c0.212,0.007 0.414,0.035 0.599,0.08c0.187,0.04 0.356,0.1 0.508,0.16c0.153,0.06 0.287,0.126 0.402,0.189c0.117,0.062 0.213,0.124 0.291,0.176c0.08,0.05 0.136,0.099 0.177,0.128c0.039,0.031 0.061,0.047 0.061,0.047c-0,0 -0.103,-0.028 -0.283,-0.077c-0.088,-0.025 -0.197,-0.051 -0.32,-0.082c-0.123,-0.028 -0.262,-0.055 -0.412,-0.084c-0.302,-0.047 -0.653,-0.085 -1.017,-0.059c-0.181,0.011 -0.365,0.039 -0.546,0.086c-0.179,0.048 -0.356,0.113 -0.522,0.199c-0.168,0.082 -0.322,0.192 -0.465,0.311c-0.143,0.12 -0.274,0.252 -0.388,0.394c-0.117,0.14 -0.218,0.289 -0.309,0.434c-0.089,0.147 -0.171,0.291 -0.239,0.428c-0.068,0.137 -0.128,0.266 -0.179,0.383c-0.05,0.117 -0.093,0.219 -0.129,0.303c-0.066,0.174 -0.11,0.272 -0.11,0.272Z" style="fill:#d0b0ff;fill-rule:nonzero;"/><path d="M21.158,67.674c-0,-0 0.054,-0.049 0.152,-0.128c0.051,-0.037 0.113,-0.085 0.188,-0.133c0.038,-0.023 0.079,-0.048 0.121,-0.074c0.043,-0.026 0.091,-0.048 0.14,-0.074c0.099,-0.05 0.209,-0.098 0.331,-0.139c0.123,-0.039 0.256,-0.075 0.398,-0.092c0.283,-0.04 0.606,-0.013 0.901,0.103c0.293,0.117 0.549,0.316 0.727,0.541c0.091,0.111 0.167,0.226 0.226,0.34c0.063,0.114 0.107,0.226 0.145,0.331c0.037,0.104 0.063,0.202 0.083,0.289c0.02,0.086 0.031,0.163 0.039,0.226c0.01,0.063 0.01,0.113 0.014,0.147c0.002,0.034 0.003,0.052 0.003,0.052c-0,0 -0.031,-0.065 -0.086,-0.178c-0.027,-0.056 -0.062,-0.123 -0.101,-0.199c-0.041,-0.076 -0.089,-0.159 -0.141,-0.248c-0.11,-0.175 -0.248,-0.371 -0.422,-0.544c-0.087,-0.088 -0.183,-0.169 -0.288,-0.24c-0.104,-0.07 -0.216,-0.132 -0.334,-0.178c-0.116,-0.049 -0.241,-0.078 -0.365,-0.099c-0.124,-0.019 -0.25,-0.026 -0.374,-0.022c-0.123,0.003 -0.243,0.018 -0.358,0.036c-0.115,0.02 -0.224,0.043 -0.325,0.069c-0.1,0.027 -0.192,0.053 -0.274,0.079c-0.082,0.027 -0.153,0.05 -0.212,0.069c-0.118,0.044 -0.188,0.066 -0.188,0.066Z" style="fill:#d0b0ff;fill-rule:nonzero;"/><path d="M23.164,68.431c0,0 0.064,-0.086 0.182,-0.23c0.063,-0.069 0.138,-0.157 0.233,-0.248c0.048,-0.046 0.099,-0.094 0.152,-0.145c0.055,-0.05 0.117,-0.096 0.18,-0.149c0.128,-0.101 0.274,-0.204 0.438,-0.3c0.166,-0.093 0.348,-0.184 0.549,-0.252c0.397,-0.143 0.873,-0.201 1.333,-0.121c0.46,0.081 0.89,0.293 1.215,0.564c0.165,0.133 0.309,0.278 0.43,0.425c0.124,0.145 0.223,0.295 0.308,0.435c0.086,0.139 0.153,0.273 0.207,0.393c0.055,0.12 0.095,0.227 0.125,0.316c0.034,0.087 0.049,0.161 0.064,0.208c0.013,0.049 0.02,0.075 0.02,0.075c-0,-0 -0.065,-0.084 -0.178,-0.232c-0.056,-0.074 -0.127,-0.16 -0.206,-0.258c-0.081,-0.097 -0.176,-0.203 -0.279,-0.316c-0.212,-0.22 -0.469,-0.462 -0.774,-0.661c-0.151,-0.101 -0.315,-0.19 -0.487,-0.261c-0.173,-0.07 -0.352,-0.126 -0.537,-0.157c-0.184,-0.036 -0.372,-0.041 -0.558,-0.033c-0.186,0.009 -0.371,0.036 -0.548,0.08c-0.178,0.04 -0.347,0.099 -0.508,0.159c-0.16,0.064 -0.311,0.129 -0.449,0.196c-0.137,0.07 -0.262,0.136 -0.374,0.198c-0.11,0.063 -0.206,0.118 -0.286,0.164c-0.157,0.099 -0.252,0.15 -0.252,0.15Z" style="fill:#d0b0ff;fill-rule:nonzero;"/><path d="M46.99,69.2c0,0 -0.014,-0.045 -0.042,-0.13c-0.013,-0.042 -0.03,-0.095 -0.05,-0.157c-0.019,-0.062 -0.043,-0.132 -0.06,-0.214c-0.019,-0.082 -0.041,-0.173 -0.064,-0.272c-0.026,-0.099 -0.035,-0.208 -0.055,-0.324c-0.009,-0.058 -0.02,-0.118 -0.027,-0.18c-0.005,-0.062 -0.01,-0.126 -0.016,-0.192c-0.005,-0.066 -0.01,-0.134 -0.015,-0.203c-0.001,-0.07 -0.001,-0.141 -0.002,-0.214c-0.006,-0.292 0.024,-0.609 0.079,-0.941c0.015,-0.083 0.035,-0.166 0.053,-0.251c0.018,-0.084 0.037,-0.17 0.065,-0.255c0.025,-0.085 0.051,-0.171 0.077,-0.258c0.033,-0.084 0.066,-0.17 0.1,-0.256c0.031,-0.088 0.073,-0.171 0.113,-0.256c0.041,-0.085 0.08,-0.172 0.13,-0.254c0.047,-0.082 0.094,-0.167 0.144,-0.249c0.054,-0.08 0.109,-0.161 0.164,-0.242c0.228,-0.316 0.499,-0.61 0.799,-0.871c0.302,-0.258 0.637,-0.476 0.985,-0.653c0.345,-0.181 0.71,-0.307 1.068,-0.397c0.357,-0.097 0.713,-0.134 1.048,-0.155c0.168,-0.002 0.331,-0.015 0.489,-0.002c0.078,0.004 0.155,0.008 0.231,0.012c0.076,0.007 0.149,0.017 0.222,0.025c0.072,0.009 0.143,0.018 0.212,0.026c0.068,0.013 0.135,0.026 0.2,0.038c0.064,0.013 0.128,0.025 0.189,0.037c0.061,0.015 0.119,0.031 0.176,0.046c0.113,0.033 0.221,0.053 0.316,0.09c0.095,0.033 0.183,0.063 0.263,0.091c0.079,0.025 0.148,0.057 0.207,0.082c0.06,0.026 0.111,0.048 0.152,0.066c0.081,0.036 0.125,0.055 0.125,0.055c0,0 -0.046,-0.011 -0.134,-0.031c-0.087,-0.019 -0.213,-0.054 -0.375,-0.085c-0.163,-0.03 -0.36,-0.07 -0.587,-0.097c-0.057,-0.007 -0.115,-0.016 -0.175,-0.023c-0.061,-0.004 -0.123,-0.009 -0.187,-0.013c-0.063,-0.005 -0.129,-0.011 -0.195,-0.016c-0.067,-0.002 -0.136,-0.003 -0.206,-0.005c-0.069,-0.001 -0.14,-0.004 -0.213,-0.003c-0.072,0.003 -0.146,0.006 -0.221,0.01c-0.149,0.001 -0.303,0.022 -0.461,0.036c-0.313,0.043 -0.642,0.102 -0.969,0.205c-0.041,0.012 -0.082,0.024 -0.124,0.036c-0.04,0.015 -0.081,0.03 -0.122,0.045c-0.081,0.031 -0.164,0.057 -0.245,0.092c-0.08,0.035 -0.161,0.071 -0.242,0.107c-0.081,0.036 -0.159,0.081 -0.238,0.121c-0.314,0.171 -0.619,0.369 -0.893,0.607c-0.275,0.235 -0.523,0.502 -0.739,0.785c-0.218,0.284 -0.391,0.593 -0.538,0.901c-0.035,0.078 -0.069,0.155 -0.103,0.232c-0.03,0.079 -0.059,0.157 -0.087,0.234c-0.031,0.077 -0.054,0.156 -0.077,0.233c-0.022,0.078 -0.047,0.154 -0.066,0.231c-0.017,0.077 -0.034,0.153 -0.05,0.229c-0.008,0.037 -0.017,0.074 -0.025,0.112c-0.005,0.037 -0.011,0.074 -0.017,0.111c-0.012,0.074 -0.024,0.147 -0.035,0.218c-0.012,0.071 -0.015,0.142 -0.022,0.212c-0.007,0.069 -0.013,0.137 -0.019,0.204c-0.002,0.067 -0.004,0.132 -0.006,0.196c-0.003,0.063 -0.005,0.126 -0.007,0.186c-0.001,0.061 0.003,0.12 0.004,0.177c0.002,0.229 0.02,0.427 0.034,0.592c0.014,0.165 0.037,0.295 0.047,0.383c0.012,0.089 0.017,0.136 0.017,0.136Z" style="fill:#d0b0ff;fill-rule:nonzero;"/><path d="M56.306,58.337c0.009,0 0.018,-0 0.026,-0c0.036,-0.045 0.073,-0.088 0.112,-0.13c-0.106,0.015 -0.192,0.063 -0.26,0.132c0.041,-0 0.082,-0.001 0.122,-0.002Z" style="fill:#d0b0ff;fill-rule:nonzero;"/><path d="M58.842,59.586c-0.029,-0.004 -0.058,-0.008 -0.088,-0.012c-0.051,-0.007 -0.103,-0.014 -0.154,-0.021c-0.053,-0.003 -0.105,-0.005 -0.158,-0.007c-0.106,-0.004 -0.213,-0.012 -0.321,-0.012c-0.215,0.008 -0.436,0.012 -0.656,0.048c-0.223,0.022 -0.442,0.078 -0.664,0.129c-0.439,0.12 -0.868,0.302 -1.271,0.528c-0.404,0.226 -0.769,0.513 -1.097,0.826c-0.33,0.311 -0.609,0.663 -0.838,1.027c-0.119,0.179 -0.215,0.368 -0.309,0.552c-0.044,0.093 -0.081,0.188 -0.121,0.281c-0.02,0.046 -0.04,0.092 -0.059,0.138c-0.016,0.047 -0.032,0.094 -0.048,0.14c-0.031,0.093 -0.061,0.185 -0.092,0.275c-0.023,0.092 -0.046,0.183 -0.067,0.273c-0.01,0.044 -0.021,0.089 -0.031,0.133c-0.008,0.044 -0.014,0.089 -0.021,0.132c-0.014,0.088 -0.027,0.173 -0.039,0.257c-0.014,0.084 -0.015,0.168 -0.022,0.249c-0.006,0.081 -0.013,0.159 -0.015,0.236c0.005,0.154 0.009,0.3 0.012,0.437c0.016,0.136 0.028,0.263 0.044,0.379c0.017,0.117 0.045,0.223 0.064,0.318c0.01,0.048 0.019,0.093 0.028,0.135c0.009,0.042 0.025,0.079 0.035,0.115c0.023,0.071 0.042,0.132 0.058,0.181c0.033,0.098 0.05,0.15 0.05,0.15c-0,0 -0.005,-0.055 -0.015,-0.157c-0.008,-0.102 -0.034,-0.254 -0.035,-0.443c-0.001,-0.095 -0.01,-0.198 -0.007,-0.312c0.007,-0.114 0.01,-0.236 0.015,-0.366c0.015,-0.129 0.032,-0.267 0.049,-0.412c0.03,-0.142 0.052,-0.293 0.088,-0.447c0.021,-0.077 0.043,-0.155 0.064,-0.234c0.011,-0.04 0.021,-0.08 0.034,-0.12c0.014,-0.039 0.028,-0.079 0.043,-0.119c0.029,-0.08 0.057,-0.162 0.085,-0.245c0.034,-0.08 0.07,-0.162 0.105,-0.245c0.018,-0.041 0.036,-0.082 0.054,-0.124c0.021,-0.041 0.043,-0.081 0.064,-0.122c0.044,-0.081 0.084,-0.165 0.132,-0.246c0.05,-0.08 0.1,-0.161 0.15,-0.243c0.046,-0.084 0.109,-0.159 0.163,-0.239c0.056,-0.08 0.113,-0.161 0.178,-0.235c0.063,-0.076 0.123,-0.156 0.19,-0.231c0.068,-0.072 0.137,-0.146 0.207,-0.219c0.068,-0.075 0.146,-0.14 0.22,-0.211c0.037,-0.034 0.073,-0.07 0.112,-0.103l0.119,-0.097l0.12,-0.096c0.039,-0.034 0.081,-0.064 0.123,-0.093l0.253,-0.178l0.266,-0.158c0.358,-0.204 0.739,-0.367 1.126,-0.486c0.391,-0.11 0.785,-0.181 1.173,-0.207c0.056,-0.003 0.111,-0.004 0.167,-0.005c0.067,-0.069 0.154,-0.116 0.26,-0.132c0.062,-0.068 0.129,-0.133 0.202,-0.195c-0.004,-0.049 0.046,-0.101 0.075,-0.167Z" style="fill:#d0b0ff;fill-rule:nonzero;"/><path d="M46.461,72.978c0,-0 -0.01,-0.045 -0.03,-0.127c-0.01,-0.041 -0.023,-0.092 -0.037,-0.152c-0.007,-0.03 -0.015,-0.062 -0.023,-0.097c-0.006,-0.035 -0.012,-0.072 -0.019,-0.111c-0.013,-0.079 -0.027,-0.167 -0.042,-0.262c-0.012,-0.096 -0.019,-0.2 -0.029,-0.311c-0.015,-0.223 -0.019,-0.476 0.002,-0.752c0.008,-0.138 0.031,-0.281 0.048,-0.429c0.014,-0.074 0.029,-0.148 0.044,-0.224c0.008,-0.038 0.015,-0.077 0.023,-0.115c0.01,-0.038 0.021,-0.076 0.031,-0.115c0.021,-0.077 0.042,-0.155 0.064,-0.234c0.027,-0.077 0.054,-0.156 0.081,-0.235c0.026,-0.08 0.059,-0.158 0.095,-0.237c0.036,-0.078 0.065,-0.16 0.108,-0.236c0.04,-0.078 0.081,-0.156 0.122,-0.235c0.044,-0.077 0.092,-0.153 0.139,-0.23c0.045,-0.079 0.099,-0.151 0.152,-0.226c0.052,-0.074 0.106,-0.149 0.167,-0.219c0.229,-0.288 0.499,-0.552 0.792,-0.784c0.296,-0.23 0.614,-0.432 0.947,-0.588c0.081,-0.044 0.166,-0.078 0.25,-0.113c0.085,-0.034 0.167,-0.072 0.253,-0.098c0.086,-0.028 0.17,-0.057 0.255,-0.085c0.085,-0.023 0.17,-0.046 0.254,-0.068c0.084,-0.024 0.169,-0.041 0.253,-0.057c0.084,-0.016 0.167,-0.035 0.25,-0.046c0.166,-0.019 0.328,-0.046 0.487,-0.051c0.079,-0.004 0.157,-0.009 0.234,-0.013c0.077,0 0.153,0 0.228,0.001c0.149,-0.002 0.292,0.011 0.43,0.022c0.138,0.007 0.268,0.028 0.392,0.045c0.124,0.016 0.241,0.04 0.35,0.064c0.219,0.039 0.404,0.099 0.558,0.141c0.153,0.044 0.269,0.092 0.349,0.118c0.08,0.029 0.123,0.045 0.123,0.045c-0,-0 -0.045,-0.009 -0.128,-0.025c-0.084,-0.015 -0.205,-0.042 -0.361,-0.068c-0.156,-0.021 -0.344,-0.056 -0.562,-0.073c-0.109,-0.012 -0.224,-0.024 -0.347,-0.027c-0.122,-0.004 -0.25,-0.016 -0.383,-0.011c-0.134,0 -0.273,-0.001 -0.416,0.013c-0.071,0.004 -0.144,0.008 -0.218,0.013c-0.073,0.009 -0.148,0.017 -0.223,0.026c-0.152,0.014 -0.304,0.049 -0.461,0.075c-0.078,0.016 -0.155,0.038 -0.234,0.055c-0.079,0.018 -0.159,0.037 -0.237,0.063c-0.319,0.085 -0.631,0.221 -0.941,0.369c-0.31,0.15 -0.603,0.343 -0.876,0.559c-0.276,0.213 -0.53,0.455 -0.747,0.721c-0.215,0.267 -0.415,0.542 -0.567,0.833c-0.043,0.071 -0.072,0.147 -0.109,0.219c-0.035,0.072 -0.071,0.144 -0.1,0.218c-0.03,0.073 -0.06,0.145 -0.089,0.217c-0.025,0.074 -0.05,0.146 -0.074,0.218c-0.012,0.036 -0.023,0.071 -0.035,0.107c-0.01,0.036 -0.019,0.072 -0.029,0.107c-0.019,0.072 -0.037,0.142 -0.056,0.211c-0.027,0.14 -0.061,0.275 -0.079,0.406c-0.04,0.263 -0.062,0.508 -0.07,0.726c-0.002,0.109 -0.004,0.211 -0.006,0.305c0.004,0.095 0.007,0.182 0.01,0.26c0.001,0.079 0.007,0.149 0.013,0.211c0.005,0.061 0.01,0.113 0.013,0.156c0.008,0.084 0.011,0.13 0.011,0.13Z" style="fill:#d0b0ff;fill-rule:nonzero;"/><path d="M44.362,75.294c0,-0 -0.005,-0.021 -0.016,-0.06c-0.009,-0.039 -0.029,-0.094 -0.041,-0.169c-0.011,-0.075 -0.03,-0.168 -0.031,-0.274c-0.002,-0.027 -0.003,-0.054 -0.005,-0.083c0.001,-0.028 0.002,-0.058 0.003,-0.088c0.001,-0.061 0.006,-0.124 0.017,-0.19c0.014,-0.133 0.05,-0.275 0.102,-0.422c0.056,-0.144 0.125,-0.295 0.224,-0.435c0.095,-0.142 0.211,-0.279 0.347,-0.397c0.134,-0.119 0.284,-0.226 0.447,-0.31c0.162,-0.083 0.332,-0.153 0.507,-0.195c0.174,-0.043 0.35,-0.067 0.52,-0.069c0.17,0 0.334,0.012 0.485,0.048c0.076,0.013 0.148,0.039 0.217,0.058c0.068,0.026 0.134,0.05 0.195,0.078c0.122,0.054 0.227,0.117 0.314,0.179c0.043,0.032 0.084,0.06 0.12,0.089c0.034,0.031 0.065,0.06 0.093,0.086c0.058,0.048 0.093,0.099 0.121,0.127c0.026,0.031 0.04,0.047 0.04,0.047c0,-0 -0.019,-0.011 -0.054,-0.031c-0.035,-0.019 -0.083,-0.052 -0.149,-0.085c-0.033,-0.016 -0.069,-0.035 -0.108,-0.055c-0.04,-0.017 -0.084,-0.036 -0.13,-0.056c-0.093,-0.037 -0.2,-0.073 -0.317,-0.104c-0.059,-0.015 -0.121,-0.026 -0.184,-0.038c-0.065,-0.007 -0.13,-0.022 -0.199,-0.024c-0.136,-0.014 -0.28,-0.008 -0.427,0.004c-0.147,0.014 -0.296,0.046 -0.444,0.087c-0.148,0.044 -0.292,0.104 -0.431,0.176c-0.139,0.07 -0.267,0.16 -0.386,0.256c-0.12,0.096 -0.225,0.205 -0.317,0.319c-0.095,0.113 -0.169,0.235 -0.234,0.355c-0.029,0.061 -0.061,0.12 -0.084,0.181c-0.012,0.03 -0.024,0.059 -0.036,0.088c-0.01,0.03 -0.02,0.059 -0.029,0.088c-0.009,0.029 -0.019,0.057 -0.027,0.085c-0.006,0.029 -0.013,0.056 -0.02,0.084c-0.007,0.027 -0.013,0.053 -0.02,0.079c-0.004,0.026 -0.009,0.052 -0.013,0.076c-0.019,0.1 -0.027,0.187 -0.035,0.26c-0.007,0.074 -0.008,0.134 -0.011,0.173c-0.002,0.04 -0.004,0.062 -0.004,0.062Z" style="fill:#d0b0ff;fill-rule:nonzero;"/><path d="M40.641,77.993c0,0 -0.003,-0.024 -0.01,-0.07c-0.007,-0.046 -0.019,-0.114 -0.03,-0.2c-0.004,-0.086 -0.018,-0.193 -0.019,-0.314c-0,-0.061 -0,-0.127 -0.001,-0.195c0.005,-0.069 0.011,-0.141 0.016,-0.216c0.011,-0.075 0.022,-0.153 0.034,-0.233c0.019,-0.08 0.035,-0.163 0.061,-0.247c0.05,-0.167 0.115,-0.34 0.209,-0.508c0.096,-0.166 0.208,-0.332 0.35,-0.477c0.142,-0.145 0.303,-0.274 0.478,-0.383c0.175,-0.107 0.366,-0.187 0.557,-0.249c0.191,-0.063 0.387,-0.097 0.577,-0.114c0.095,-0.012 0.188,-0.012 0.28,-0.015c0.091,0.004 0.181,0.004 0.267,0.014c0.174,0.012 0.335,0.047 0.482,0.081c0.073,0.019 0.142,0.039 0.208,0.059c0.064,0.024 0.125,0.046 0.182,0.067c0.113,0.048 0.21,0.091 0.287,0.132c0.078,0.037 0.135,0.077 0.175,0.1c0.04,0.024 0.061,0.037 0.061,0.037c0,-0 -0.023,-0.01 -0.065,-0.028c-0.043,-0.018 -0.105,-0.047 -0.186,-0.077c-0.08,-0.032 -0.179,-0.065 -0.294,-0.1c-0.058,-0.014 -0.119,-0.03 -0.184,-0.046c-0.066,-0.013 -0.134,-0.029 -0.206,-0.042c-0.145,-0.022 -0.301,-0.043 -0.468,-0.047c-0.083,-0.006 -0.169,-0 -0.256,0c-0.087,0.009 -0.176,0.01 -0.265,0.024c-0.09,0.009 -0.18,0.029 -0.271,0.047c-0.089,0.024 -0.181,0.045 -0.27,0.076c-0.178,0.06 -0.355,0.136 -0.517,0.237c-0.163,0.099 -0.313,0.217 -0.446,0.35c-0.131,0.133 -0.243,0.281 -0.337,0.434c-0.091,0.154 -0.163,0.313 -0.219,0.47c-0.029,0.078 -0.047,0.157 -0.071,0.231c-0.018,0.077 -0.034,0.151 -0.05,0.222c-0.011,0.073 -0.021,0.142 -0.032,0.208c-0.006,0.067 -0.012,0.13 -0.018,0.189c-0.012,0.12 -0.009,0.224 -0.014,0.31c0.004,0.174 0.005,0.273 0.005,0.273Z" style="fill:#d0b0ff;fill-rule:nonzero;"/><path d="M28.276,76.395c-0,0 0.015,-0.049 0.044,-0.142c0.015,-0.046 0.034,-0.103 0.055,-0.17c0.024,-0.066 0.042,-0.145 0.081,-0.228c0.077,-0.164 0.154,-0.379 0.291,-0.596c0.032,-0.055 0.066,-0.113 0.1,-0.172c0.033,-0.061 0.078,-0.115 0.119,-0.175c0.085,-0.117 0.171,-0.244 0.282,-0.36c0.053,-0.06 0.108,-0.121 0.164,-0.183c0.057,-0.061 0.123,-0.115 0.186,-0.175c0.065,-0.057 0.127,-0.122 0.201,-0.174c0.072,-0.053 0.146,-0.108 0.221,-0.163c0.072,-0.058 0.156,-0.103 0.238,-0.152c0.083,-0.046 0.164,-0.101 0.253,-0.142c0.089,-0.041 0.179,-0.082 0.27,-0.124c0.045,-0.023 0.093,-0.039 0.14,-0.055c0.048,-0.017 0.096,-0.034 0.145,-0.05c0.386,-0.13 0.806,-0.215 1.237,-0.222c0.43,-0.012 0.869,0.035 1.292,0.147c0.422,0.118 0.827,0.293 1.193,0.522c0.09,0.06 0.179,0.119 0.268,0.179c0.083,0.067 0.165,0.135 0.247,0.202l0.061,0.05l0.056,0.055l0.112,0.11l0.11,0.11c0.035,0.038 0.066,0.08 0.099,0.119c0.272,0.307 0.467,0.657 0.619,0.996c0.034,0.087 0.068,0.172 0.101,0.256c0.017,0.042 0.03,0.085 0.042,0.128c0.011,0.042 0.023,0.085 0.034,0.127c0.022,0.084 0.048,0.166 0.064,0.248c0.014,0.082 0.027,0.163 0.04,0.243c0.031,0.157 0.034,0.311 0.042,0.456c0.011,0.145 0.001,0.282 -0.006,0.411c-0.006,0.128 -0.009,0.248 -0.032,0.357c-0.017,0.109 -0.034,0.209 -0.048,0.299c-0.013,0.09 -0.04,0.168 -0.057,0.237c-0.018,0.068 -0.034,0.126 -0.046,0.173c-0.026,0.093 -0.04,0.143 -0.04,0.143c-0,0 0.003,-0.052 0.009,-0.149c0.005,-0.097 0.02,-0.238 0.026,-0.416c-0.001,-0.09 -0.001,-0.188 -0.002,-0.296c-0.002,-0.054 0.003,-0.109 -0.003,-0.167c-0.005,-0.057 -0.011,-0.117 -0.016,-0.178c-0.01,-0.123 -0.018,-0.253 -0.048,-0.388c-0.026,-0.134 -0.043,-0.277 -0.09,-0.419c-0.019,-0.072 -0.039,-0.145 -0.059,-0.22c-0.022,-0.074 -0.055,-0.146 -0.082,-0.22c-0.014,-0.038 -0.028,-0.075 -0.042,-0.113c-0.014,-0.038 -0.029,-0.076 -0.048,-0.112c-0.036,-0.073 -0.073,-0.148 -0.11,-0.223c-0.162,-0.294 -0.355,-0.592 -0.61,-0.851c-0.251,-0.26 -0.537,-0.506 -0.868,-0.695c-0.328,-0.191 -0.685,-0.344 -1.058,-0.446c-0.373,-0.102 -0.76,-0.145 -1.14,-0.146c-0.095,0.004 -0.19,0.001 -0.284,0.01c-0.094,0.01 -0.187,0.019 -0.28,0.029c-0.093,0.011 -0.183,0.035 -0.274,0.051c-0.045,0.009 -0.091,0.016 -0.135,0.027c-0.044,0.012 -0.088,0.025 -0.132,0.038c-0.043,0.012 -0.087,0.025 -0.13,0.037c-0.044,0.012 -0.088,0.024 -0.128,0.042c-0.084,0.032 -0.167,0.064 -0.249,0.096c-0.083,0.03 -0.157,0.075 -0.236,0.112c-0.076,0.038 -0.155,0.073 -0.225,0.12c-0.072,0.044 -0.143,0.087 -0.213,0.13c-0.071,0.042 -0.131,0.097 -0.197,0.142c-0.063,0.049 -0.129,0.093 -0.187,0.143c-0.058,0.052 -0.114,0.103 -0.169,0.153c-0.116,0.095 -0.208,0.206 -0.303,0.305c-0.045,0.051 -0.096,0.096 -0.134,0.149c-0.04,0.052 -0.079,0.102 -0.117,0.15c-0.076,0.097 -0.148,0.188 -0.203,0.279c-0.059,0.089 -0.113,0.172 -0.162,0.246c-0.093,0.154 -0.158,0.282 -0.206,0.366c-0.048,0.084 -0.073,0.129 -0.073,0.129Z" style="fill:#d0b0ff;fill-rule:nonzero;"/><path d="M42.954,63.836c-0,-0 -0.003,-0.009 -0.007,-0.025c-0.003,-0.016 -0.011,-0.039 -0.014,-0.071c-0.005,-0.031 -0.009,-0.069 -0.009,-0.114c0,-0.022 0,-0.045 0.002,-0.07c0.002,-0.025 0.005,-0.051 0.01,-0.078c0.009,-0.055 0.023,-0.113 0.045,-0.173c0.023,-0.059 0.052,-0.121 0.09,-0.18c0.037,-0.059 0.082,-0.117 0.135,-0.169c0.052,-0.053 0.111,-0.101 0.175,-0.141c0.064,-0.04 0.132,-0.074 0.203,-0.098c0.07,-0.023 0.142,-0.039 0.212,-0.046c0.071,-0.006 0.139,-0.006 0.202,0.002c0.064,0.007 0.122,0.022 0.174,0.038c0.053,0.017 0.099,0.036 0.138,0.056c0.04,0.018 0.072,0.04 0.098,0.056c0.027,0.017 0.046,0.032 0.059,0.042c0.013,0.01 0.02,0.015 0.02,0.015c0,0 -0.034,-0.009 -0.092,-0.027c-0.03,-0.006 -0.065,-0.017 -0.106,-0.025c-0.041,-0.009 -0.087,-0.015 -0.137,-0.022c-0.05,-0.005 -0.104,-0.008 -0.16,-0.005c-0.057,-0 -0.115,0.008 -0.174,0.018c-0.06,0.012 -0.119,0.03 -0.178,0.052c-0.058,0.024 -0.115,0.053 -0.169,0.087c-0.055,0.033 -0.104,0.074 -0.151,0.116c-0.047,0.042 -0.089,0.089 -0.126,0.137c-0.038,0.047 -0.07,0.097 -0.097,0.147c-0.014,0.024 -0.026,0.049 -0.037,0.073c-0.013,0.024 -0.021,0.048 -0.031,0.072c-0.017,0.046 -0.031,0.091 -0.041,0.131c-0.009,0.04 -0.018,0.076 -0.022,0.106c-0.005,0.029 -0.007,0.054 -0.009,0.07c-0.002,0.017 -0.003,0.026 -0.003,0.026Z" style="fill:#d0b0ff;fill-rule:nonzero;"/><path d="M41.36,66.298c0,0 -0.009,-0.022 -0.026,-0.064c-0.008,-0.021 -0.018,-0.047 -0.03,-0.077c-0.011,-0.031 -0.028,-0.064 -0.038,-0.105c-0.022,-0.082 -0.058,-0.181 -0.072,-0.299c-0.005,-0.03 -0.011,-0.06 -0.016,-0.092c-0.006,-0.031 -0.006,-0.064 -0.009,-0.097c-0.004,-0.067 -0.011,-0.138 -0.006,-0.212c0.002,-0.037 0.003,-0.075 0.005,-0.114c0.003,-0.039 0.01,-0.078 0.015,-0.118c0.007,-0.039 0.01,-0.081 0.02,-0.121c0.011,-0.041 0.021,-0.082 0.031,-0.124c0.009,-0.042 0.026,-0.083 0.041,-0.124c0.016,-0.041 0.028,-0.085 0.048,-0.126c0.02,-0.041 0.04,-0.082 0.06,-0.124c0.009,-0.022 0.022,-0.041 0.034,-0.061c0.012,-0.02 0.024,-0.041 0.037,-0.061c0.1,-0.16 0.225,-0.315 0.377,-0.445c0.15,-0.131 0.321,-0.244 0.505,-0.329c0.186,-0.082 0.383,-0.139 0.581,-0.166c0.05,-0.005 0.099,-0.01 0.148,-0.015c0.05,-0 0.099,-0 0.148,-0l0.037,-0l0.036,0.003l0.073,0.006l0.072,0.007c0.024,0.003 0.047,0.009 0.07,0.013c0.188,0.029 0.362,0.097 0.516,0.173c0.038,0.021 0.075,0.042 0.112,0.062c0.018,0.01 0.035,0.021 0.052,0.033c0.017,0.012 0.034,0.024 0.05,0.036c0.033,0.023 0.066,0.045 0.096,0.069c0.03,0.026 0.058,0.051 0.086,0.076c0.058,0.047 0.104,0.101 0.15,0.15c0.047,0.049 0.084,0.101 0.119,0.149c0.036,0.048 0.07,0.091 0.094,0.137c0.026,0.044 0.05,0.085 0.071,0.121c0.023,0.036 0.036,0.072 0.05,0.102c0.014,0.029 0.025,0.055 0.035,0.075c0.018,0.041 0.028,0.063 0.028,0.063c-0,0 -0.015,-0.019 -0.041,-0.056c-0.027,-0.036 -0.063,-0.09 -0.114,-0.156c-0.026,-0.032 -0.056,-0.067 -0.088,-0.105c-0.017,-0.019 -0.031,-0.04 -0.05,-0.059c-0.019,-0.019 -0.039,-0.039 -0.059,-0.059c-0.04,-0.041 -0.081,-0.085 -0.131,-0.125c-0.049,-0.04 -0.097,-0.086 -0.156,-0.123c-0.028,-0.02 -0.057,-0.04 -0.086,-0.061c-0.03,-0.02 -0.063,-0.036 -0.095,-0.055c-0.016,-0.009 -0.032,-0.018 -0.048,-0.028c-0.016,-0.009 -0.033,-0.018 -0.05,-0.025c-0.035,-0.016 -0.07,-0.032 -0.106,-0.048c-0.144,-0.057 -0.301,-0.107 -0.469,-0.124c-0.166,-0.019 -0.341,-0.022 -0.516,0.008c-0.173,0.029 -0.346,0.079 -0.51,0.153c-0.163,0.074 -0.314,0.173 -0.45,0.285c-0.033,0.029 -0.068,0.056 -0.099,0.087c-0.031,0.031 -0.061,0.062 -0.092,0.093c-0.03,0.031 -0.055,0.067 -0.083,0.099c-0.013,0.017 -0.027,0.033 -0.04,0.05c-0.012,0.017 -0.024,0.035 -0.036,0.052c-0.012,0.018 -0.024,0.035 -0.036,0.052c-0.012,0.017 -0.024,0.034 -0.033,0.053c-0.02,0.036 -0.04,0.072 -0.06,0.108c-0.021,0.035 -0.034,0.073 -0.052,0.109c-0.016,0.037 -0.034,0.072 -0.045,0.11c-0.012,0.037 -0.025,0.073 -0.037,0.109c-0.014,0.036 -0.019,0.074 -0.029,0.109c-0.008,0.036 -0.019,0.071 -0.025,0.107c-0.005,0.035 -0.01,0.07 -0.015,0.104c-0.013,0.069 -0.013,0.135 -0.018,0.199c-0.001,0.031 -0.006,0.063 -0.004,0.093c0.001,0.03 0.002,0.059 0.003,0.088c0.001,0.057 0.002,0.111 0.009,0.16c0.006,0.049 0.01,0.094 0.015,0.136c0.012,0.082 0.027,0.147 0.034,0.191c0.008,0.044 0.012,0.068 0.012,0.068Z" style="fill:#d0b0ff;fill-rule:nonzero;"/></g></g></g></g><path d="M31.236,10.332c-0.764,0.006 -2.527,0.318 -3.658,0.388c-0.396,0.024 -0.636,-0.4 -0.394,-0.695c0.675,-0.824 1.663,-1.615 2.023,-2.218c1.073,-1.801 1.405,-6.496 1.945,-6.502c0.541,-0.003 1.018,4.685 2.055,6.404c0.371,0.613 1.39,1.423 2.078,2.25c0.243,0.292 0.008,0.717 -0.386,0.699c-1.131,-0.05 -2.897,-0.334 -3.663,-0.326Z" style="fill:#b27eff;fill-rule:nonzero;"/></g><g id="LOGO-V5.2---ROCKBALL" serif:id="LOGO V5.2 - ROCKBALL"></g><defs><radialGradient id="_Radial1" cx="0" cy="0" r="1" gradientUnits="userSpaceOnUse" gradientTransform="matrix(30.0097,0,7.10543e-15,30.0097,31.3848,44.782)"><stop offset="0" style="stop-color:#fbfbfb;stop-opacity:1"/><stop offset="0.2" style="stop-color:#a1a0a0;stop-opacity:1"/><stop offset="0.4" style="stop-color:#656363;stop-opacity:1"/><stop offset="0.7" style="stop-color:#393536;stop-opacity:1"/><stop offset="1" style="stop-color:#312d2d;stop-opacity:1"/></radialGradient><radialGradient id="_Radial2" cx="0" cy="0" r="1" gradientUnits="userSpaceOnUse" gradientTransform="matrix(30.22,0,7.10543e-15,30.22,31.3848,44.782)"><stop offset="0" style="stop-color:#fbfbfb;stop-opacity:1"/><stop offset="0.2" style="stop-color:#a09e9f;stop-opacity:1"/><stop offset="0.4" style="stop-color:#636061;stop-opacity:1"/><stop offset="0.6" style="stop-color:#3f3c3d;stop-opacity:1"/><stop offset="1" style="stop-color:#2d2a2a;stop-opacity:1"/></radialGradient><radialGradient id="_Radial3" cx="0" cy="0" r="1" gradientUnits="userSpaceOnUse" gradientTransform="matrix(30.4303,0,7.10543e-15,30.4303,31.3848,44.782)"><stop offset="0" style="stop-color:#fdfdfd;stop-opacity:1"/><stop offset="0.2" style="stop-color:#9f9d9e;stop-opacity:1"/><stop offset="0.4" style="stop-color:#615e5e;stop-opacity:1"/><stop offset="0.6" style="stop-color:#3d393a;stop-opacity:1"/><stop offset="1" style="stop-color:#2a2626;stop-opacity:1"/></radialGradient><linearGradient id="_Linear4" x1="0" y1="0" x2="1" y2="0" gradientUnits="userSpaceOnUse" gradientTransform="matrix(-1.23101,-47.402,47.402,-1.23101,30.1003,61.754)"><stop offset="0" style="stop-color:#fff;stop-opacity:1"/><stop offset="0.01" style="stop-color:#fff;stop-opacity:1"/><stop offset="1" style="stop-color:#b3b3b3;stop-opacity:1"/></linearGradient></defs></svg>